<svg width="76" height="82" viewBox="0 0 76 82" fill="none" xmlns="http://www.w3.org/2000/svg">
<path d="M75.0889 60.093L75.1559 25.504C75.1479 24.9865 75.0181 24.4782 74.7768 24.0201C74.5355 23.5619 74.1896 23.1668 73.767 22.8666L34.2491 0.157724C34.1237 0.0719691 33.9787 0.0192134 33.8275 0.00433973C33.6763 -0.0105339 33.5237 0.0129667 33.384 0.072659L31.8367 0.959863L32.8723 2.42437V35.9742C32.8807 36.4916 33.0108 36.9998 33.2521 37.4578C33.4933 37.9159 33.839 38.3111 34.2613 38.6116L72.8288 62.2016L73.2065 62.0436L74.6442 61.2233C74.8111 61.0903 74.9401 60.9159 75.0182 60.7175C75.0963 60.5191 75.1206 60.3037 75.0889 60.093Z" fill="url(#paint0_linear_47_14271)"/>
<path d="M72.3473 62.1408L32.8294 39.4319C32.4067 39.1317 32.0608 38.7366 31.8195 38.2785C31.5783 37.8203 31.4484 37.312 31.4404 36.7945V2.0293C31.4404 1.01448 32.0496 0.546566 32.8233 0.984094L72.3412 23.693C72.7635 23.9935 73.1091 24.3887 73.3503 24.8467C73.5916 25.3048 73.7217 25.813 73.7301 26.3303V60.0747C73.7301 61.0895 73.1087 62.5844 72.3473 62.1408Z" fill="url(#paint1_linear_47_14271)"/>
<path d="M71.3731 58.5556L33.7498 36.9344C33.5637 36.8011 33.4117 36.6261 33.3059 36.4234C33.2 36.2208 33.1434 35.9962 33.1406 35.7677V4.03474C33.1406 3.58506 33.4148 3.37844 33.7498 3.5729L71.3731 25.188C71.5592 25.3213 71.7113 25.4963 71.8171 25.699C71.9229 25.9016 71.9795 26.1263 71.9823 26.3547V58.0877C71.9823 58.5556 71.7143 58.744 71.3731 58.5556Z" fill="url(#paint2_linear_47_14271)"/>
<path d="M52.6161 13.9157L52.4638 13.8245C52.3534 13.7483 52.2631 13.6466 52.2006 13.5281C52.138 13.4096 52.105 13.2778 52.1044 13.1439C52.1044 12.8826 52.2628 12.7672 52.4638 12.8765L52.6161 12.9677C52.7254 13.045 52.8149 13.1469 52.8773 13.2652C52.9397 13.3834 52.9734 13.5147 52.9755 13.6483C52.9755 13.9096 52.8171 14.0311 52.6161 13.9157Z" fill="url(#paint3_linear_47_14271)"/>
<path d="M72.0371 62.0253L69.8013 61.837L32.0318 40.1247C31.5604 39.9109 31.0452 39.8105 30.5278 39.8316C30.0104 39.8528 29.5052 39.9947 29.0529 40.2462L1.49327 56.1552L0.03125 56.0336V57.5164C0.0312088 57.6825 0.0795355 57.845 0.170384 57.9841C0.261233 58.1233 0.390667 58.2331 0.542946 58.3003L40.0608 81.0031C40.5333 81.2169 41.0495 81.3173 41.5679 81.2962C42.0862 81.2751 42.5924 81.1331 43.0459 80.8816L71.3365 64.5472C71.5301 64.4622 71.6981 64.3285 71.8242 64.1591C71.9502 63.9897 72.0299 63.7904 72.0553 63.581L72.0371 62.0253Z" fill="url(#paint4_linear_47_14271)"/>
<path d="M40.0364 79.4779L0.518512 56.769C-0.249063 56.3315 -0.151576 55.5537 0.725651 55.0554L29.0223 38.721C29.4742 38.4686 29.9792 38.3256 30.4966 38.3034C31.014 38.2812 31.5294 38.3806 32.0012 38.5934L71.5252 61.3023C72.2867 61.7398 72.1954 62.5176 71.312 63.0159L43.0214 79.3503C42.5683 79.6023 42.0624 79.7451 41.5441 79.7673C41.0258 79.7894 40.5095 79.6903 40.0364 79.4779Z" fill="url(#paint5_linear_47_14271)"/>
<path d="M51.398 71.8272L13.7747 50.2121C13.4336 50.0177 13.4762 49.6774 13.8661 49.4525L29.6744 40.3252C29.8753 40.214 30.0994 40.1511 30.3289 40.1416C30.5584 40.1321 30.787 40.1763 30.9964 40.2705L68.6197 61.8856C68.9608 62.0801 68.9182 62.4204 68.5284 62.6452L52.6895 71.7968C52.491 71.9003 52.2712 71.9568 52.0473 71.962C51.8234 71.9673 51.6013 71.9212 51.398 71.8272Z" fill="url(#paint6_linear_47_14271)"/>
<path d="M27.049 70.1987L16.6319 64.2131C16.4492 64.1098 16.4735 63.9275 16.6806 63.8059L25.1118 58.9445C25.2195 58.8861 25.3391 58.8529 25.4616 58.8477C25.5841 58.8424 25.7061 58.8651 25.8184 58.9141L36.2355 64.9058C36.4183 65.0091 36.3939 65.1854 36.1868 65.3069L27.7557 70.1683C27.6485 70.2281 27.5287 70.262 27.4059 70.2673C27.2832 70.2726 27.161 70.2491 27.049 70.1987Z" fill="url(#paint7_linear_47_14271)"/>
<path d="M13.7744 50.2122L13.9632 50.3155L29.6741 41.2003C29.875 41.0891 30.0991 41.0262 30.3286 41.0168C30.5581 41.0073 30.7867 41.0514 30.996 41.1457L68.4305 62.6514L68.528 62.5967C68.9179 62.3718 68.9605 62.0315 68.6194 61.8371L30.996 40.222C30.7867 40.1277 30.5581 40.0836 30.3286 40.0931C30.0991 40.1026 29.875 40.1655 29.6741 40.2767L13.8657 49.4405C13.5002 49.6774 13.4332 50.0481 13.7744 50.2122Z" fill="url(#paint8_linear_47_14271)"/>
<path d="M16.6319 64.213L16.9304 64.3832L25.1118 59.6493C25.219 59.5895 25.3388 59.5556 25.4615 59.5504C25.5842 59.5451 25.7064 59.5686 25.8184 59.619L35.937 65.4344L36.1868 65.2886C36.3939 65.167 36.4183 64.9908 36.2355 64.8875L25.8184 58.8958C25.7061 58.8468 25.5841 58.8241 25.4616 58.8294C25.3391 58.8346 25.2195 58.8677 25.1118 58.9262L16.6806 63.7876C16.4735 63.9274 16.4492 64.1097 16.6319 64.213Z" fill="url(#paint9_linear_47_14271)"/>
<path d="M27.0909 70.2108L17.1002 64.4683C16.9236 64.3711 16.8261 64.2678 16.8748 64.2374L18.9643 63.022C19.0131 62.9916 19.1958 63.0524 19.3664 63.1496L29.3388 68.8861C29.5094 68.9833 29.6129 69.0927 29.5581 69.117L27.4747 70.3324C27.4503 70.3689 27.2675 70.3142 27.0909 70.2108Z" fill="url(#paint10_linear_47_14271)"/>
<path d="M29.6923 43.9226L28.6323 43.3149C28.3704 43.1569 28.4008 42.8895 28.7115 42.7072L29.1379 42.4641C29.2949 42.3763 29.4702 42.3262 29.65 42.3177C29.8298 42.3093 30.009 42.3428 30.1735 42.4155L31.2274 43.0232C31.4955 43.1751 31.465 43.4425 31.1543 43.6309L30.7279 43.88C30.571 43.9683 30.3953 44.0182 30.2152 44.0256C30.0352 44.033 29.856 43.9977 29.6923 43.9226Z" fill="#7146CE"/>
<path d="M32.3236 45.4358L31.2636 44.8281C31.0016 44.6762 31.0321 44.4088 31.3367 44.2204L31.7753 43.9713C31.9328 43.8844 32.1083 43.8353 32.2881 43.8279C32.4679 43.8205 32.6469 43.855 32.811 43.9287L33.8648 44.5364C34.1329 44.6883 34.0963 44.9557 33.7917 45.1441L33.3653 45.3932C33.2071 45.4811 33.0304 45.5307 32.8495 45.5381C32.6686 45.5455 32.4885 45.5104 32.3236 45.4358Z" fill="#7146CE"/>
<path d="M34.9554 46.9489L33.8955 46.3412C33.6335 46.1893 33.664 45.9219 33.9685 45.7336L34.4011 45.4844C34.5585 45.3975 34.7341 45.3484 34.9139 45.3411C35.0936 45.3337 35.2727 45.3682 35.4367 45.4419L36.4906 46.0496C36.7586 46.2015 36.7221 46.4689 36.4175 46.6572L35.9911 46.9064C35.8336 46.9933 35.658 47.0424 35.4783 47.0498C35.2985 47.0571 35.1195 47.0226 34.9554 46.9489Z" fill="#7146CE"/>
<path d="M37.5874 48.462L36.5274 47.8543C36.2655 47.7024 36.2959 47.435 36.6005 47.2466L37.033 46.9975C37.1905 46.9106 37.366 46.8615 37.5458 46.8541C37.7256 46.8467 37.9046 46.8812 38.0687 46.9549L39.1225 47.5626C39.3906 47.7145 39.354 47.9819 39.0494 48.1703L38.623 48.4133C38.4666 48.5026 38.2911 48.5535 38.1111 48.562C37.9311 48.5704 37.7516 48.5362 37.5874 48.462Z" fill="#7146CE"/>
<path d="M40.2125 49.9692L39.1587 49.3615C38.8906 49.2035 38.9272 48.9422 39.2318 48.7538L39.6643 48.5108C39.8213 48.4229 39.9966 48.3728 40.1763 48.3643C40.3561 48.3559 40.5354 48.3894 40.6999 48.4622L41.7538 49.0698C42.0218 49.2218 41.9853 49.4891 41.6807 49.6775L41.2543 49.9206C41.0967 50.0099 40.9203 50.0608 40.7393 50.0693C40.5583 50.0777 40.3778 50.0434 40.2125 49.9692Z" fill="#7146CE"/>
<path d="M42.8446 51.4822L41.7907 50.8745C41.5227 50.7226 41.5593 50.4552 41.8638 50.2669L42.2903 50.0177C42.4477 49.9308 42.6233 49.8817 42.8031 49.8744C42.9828 49.867 43.1619 49.9015 43.3259 49.9752L44.3859 50.5829C44.6478 50.7348 44.6174 51.0022 44.3128 51.1905L43.8803 51.4397C43.7228 51.5266 43.5472 51.5757 43.3675 51.5831C43.1877 51.5904 43.0087 51.5559 42.8446 51.4822Z" fill="#7146CE"/>
<path d="M45.4765 52.9952L44.4226 52.3876C44.1545 52.2356 44.1911 51.9683 44.4957 51.7799L44.9221 51.5307C45.0796 51.4438 45.2551 51.3947 45.4349 51.3874C45.6147 51.38 45.7937 51.4145 45.9577 51.4882L47.0177 52.0959C47.2797 52.2478 47.2492 52.5152 46.9446 52.7035L46.5121 52.9527C46.3547 53.0396 46.1791 53.0887 45.9993 53.0961C45.8195 53.1034 45.6405 53.0689 45.4765 52.9952Z" fill="#7146CE"/>
<path d="M48.1082 54.5085L47.0543 53.9008C46.7863 53.7489 46.8228 53.4815 47.1274 53.2931L47.5538 53.0439C47.7113 52.9571 47.8868 52.908 48.0666 52.9006C48.2463 52.8932 48.4254 52.9277 48.5894 53.0014L49.6494 53.6091C49.9114 53.761 49.8809 54.0284 49.5763 54.2168L49.1438 54.4659C48.9864 54.5528 48.8108 54.6019 48.631 54.6093C48.4513 54.6167 48.2722 54.5821 48.1082 54.5085Z" fill="#7146CE"/>
<path d="M50.7398 56.0216L49.6859 55.4139C49.4178 55.262 49.4544 54.9946 49.759 54.8062L50.1854 54.5632C50.3423 54.4749 50.5181 54.425 50.6981 54.4176C50.8781 54.4102 51.0573 54.4455 51.221 54.5206L52.281 55.1283C52.5429 55.2863 52.5125 55.5476 52.2018 55.736L51.7754 55.9791C51.618 56.066 51.4424 56.115 51.2626 56.1224C51.0829 56.1298 50.9038 56.0953 50.7398 56.0216Z" fill="#7146CE"/>
<path d="M53.3709 57.5287L52.317 56.921C52.0489 56.7691 52.0794 56.5018 52.3901 56.3134L52.8165 56.0703C52.973 55.9811 53.1484 55.9301 53.3285 55.9217C53.5085 55.9132 53.688 55.9475 53.8521 56.0217L54.906 56.6294C55.174 56.7813 55.1436 57.0487 54.8329 57.237L54.4065 57.4862C54.2491 57.5731 54.0735 57.6222 53.8937 57.6296C53.714 57.6369 53.5349 57.6024 53.3709 57.5287Z" fill="#7146CE"/>
<path d="M56.0827 59.0905L55.0288 58.4829C54.7607 58.3309 54.7973 58.0636 55.1019 57.8752L55.5283 57.626C55.6858 57.5391 55.8613 57.4901 56.0411 57.4827C56.2209 57.4753 56.3999 57.5098 56.5639 57.5835L57.6239 58.1912C57.8859 58.3431 57.8554 58.6105 57.5447 58.7989L57.1183 59.0419C56.9618 59.1312 56.7864 59.1821 56.6064 59.1906C56.4263 59.199 56.2469 59.1647 56.0827 59.0905Z" fill="#7146CE"/>
<path d="M58.7136 60.5973L57.6597 59.9897C57.3917 59.8317 57.4222 59.5643 57.7328 59.382L58.1593 59.1389C58.3162 59.0511 58.4915 59.0009 58.6713 58.9925C58.8511 58.984 59.0304 59.0175 59.1949 59.0903L60.2488 59.698C60.5168 59.8499 60.4864 60.1173 60.1757 60.3057L59.7493 60.5548C59.5925 60.6436 59.4167 60.6937 59.2366 60.7011C59.0565 60.7085 58.8772 60.6729 58.7136 60.5973Z" fill="#7146CE"/>
<path d="M61.3457 62.1105L60.2918 61.5028C60.0238 61.3509 60.0542 61.0835 60.3649 60.8951L60.7914 60.646C60.9488 60.5591 61.1244 60.51 61.3041 60.5026C61.4839 60.4952 61.6629 60.5298 61.827 60.6035L62.8809 61.2111C63.1489 61.3631 63.1185 61.6304 62.8078 61.8188L62.3813 62.068C62.2239 62.1549 62.0483 62.2039 61.8686 62.2113C61.6888 62.2187 61.5098 62.1842 61.3457 62.1105Z" fill="#7146CE"/>
<path d="M63.9774 63.6237L62.9175 63.016C62.6555 62.8641 62.686 62.5967 62.9967 62.4084L63.4231 62.1592C63.5805 62.0723 63.7561 62.0232 63.9359 62.0158C64.1156 62.0085 64.2947 62.043 64.4587 62.1167L65.5126 62.7243C65.7806 62.8763 65.7441 63.1436 65.4395 63.332L65.0131 63.5812C64.8556 63.6681 64.6801 63.7172 64.5003 63.7245C64.3205 63.7319 64.1415 63.6974 63.9774 63.6237Z" fill="#7146CE"/>
<path d="M26.6704 45.7033L25.5556 45.0652C25.2937 44.9133 25.3241 44.6459 25.6287 44.4575L26.9019 43.7283C27.0593 43.6414 27.2349 43.5923 27.4147 43.585C27.5945 43.5776 27.7735 43.6121 27.9375 43.6858L29.0463 44.3238C29.3082 44.4758 29.2778 44.7431 28.9732 44.9315L27.6939 45.6668C27.538 45.7522 27.3642 45.7999 27.1865 45.8062C27.0088 45.8126 26.832 45.7773 26.6704 45.7033Z" fill="#7146CE"/>
<path d="M29.2963 47.2102L28.1876 46.6025C27.9256 46.4445 27.9561 46.1771 28.2607 45.9948L29.5461 45.2595C29.6974 45.1699 29.8675 45.1166 30.043 45.104C30.2186 45.0913 30.3946 45.1196 30.5573 45.1866L31.666 45.7943C31.928 45.9523 31.8975 46.2197 31.5929 46.402L30.3076 47.1372C30.1563 47.2269 29.9861 47.2802 29.8105 47.2928C29.635 47.3055 29.4589 47.2772 29.2963 47.2102Z" fill="#7146CE"/>
<path d="M31.9589 48.7416L30.8502 48.1035C30.5821 47.9516 30.6126 47.6842 30.9233 47.4958L32.2026 46.7544C32.36 46.6675 32.5356 46.6185 32.7154 46.6111C32.8951 46.6037 33.0742 46.6382 33.2382 46.7119L34.3469 47.35C34.6149 47.5019 34.5784 47.7693 34.2738 47.9576L32.9945 48.699C32.8371 48.7859 32.6615 48.835 32.4818 48.8424C32.302 48.8498 32.123 48.8152 31.9589 48.7416Z" fill="#7146CE"/>
<path d="M34.5898 50.2547L33.475 49.647C33.213 49.489 33.2435 49.2277 33.5542 49.0393L34.8335 48.304C34.9902 48.2153 35.166 48.1651 35.3461 48.1577C35.5262 48.1503 35.7055 48.1859 35.8691 48.2615L36.9778 48.8995C37.2458 49.0514 37.2093 49.3188 36.9047 49.5072L35.6254 50.2425C35.4656 50.3246 35.2888 50.3685 35.109 50.3706C34.9293 50.3727 34.7515 50.333 34.5898 50.2547Z" fill="#7146CE"/>
<path d="M37.2222 51.7618L36.1074 51.1237C35.8454 50.9718 35.8759 50.7044 36.1805 50.516L37.4659 49.7808C37.6223 49.6915 37.7978 49.6406 37.9778 49.6321C38.1578 49.6237 38.3373 49.658 38.5015 49.7321L39.6102 50.3702C39.8721 50.5221 39.8417 50.7895 39.5371 50.9779L38.2578 51.7192C38.1004 51.8061 37.9248 51.8552 37.745 51.8626C37.5653 51.87 37.3862 51.8355 37.2222 51.7618Z" fill="#7146CE"/>
<path d="M39.8781 53.2931L38.7694 52.6854C38.5013 52.5335 38.5318 52.2661 38.8425 52.0778L40.1218 51.3425C40.2792 51.2556 40.4548 51.2065 40.6346 51.1991C40.8143 51.1917 40.9933 51.2262 41.1574 51.2999L42.2661 51.938C42.5341 52.0899 42.4976 52.3573 42.193 52.5457L40.9137 53.281C40.7539 53.3631 40.5771 53.4069 40.3973 53.409C40.2176 53.4111 40.0398 53.3714 39.8781 53.2931Z" fill="#7146CE"/>
<path d="M42.5097 54.8001L41.401 54.162C41.1329 54.0101 41.1634 53.7427 41.4741 53.5543L42.7534 52.819C42.9103 52.7312 43.0856 52.681 43.2654 52.6726C43.4452 52.6642 43.6244 52.6977 43.789 52.7704L44.8977 53.4085C45.1657 53.5604 45.1292 53.8278 44.8246 54.0162L43.5453 54.7514C43.3884 54.8393 43.213 54.8895 43.0332 54.8979C42.8535 54.9063 42.6742 54.8728 42.5097 54.8001Z" fill="#7146CE"/>
<path d="M45.1775 56.3315L44.0688 55.7239C43.8008 55.5719 43.8373 55.3046 44.1419 55.1162L45.4212 54.3748C45.5787 54.2879 45.7542 54.2388 45.934 54.2314C46.1137 54.2241 46.2928 54.2586 46.4568 54.3323L47.5655 54.9703C47.8336 55.1223 47.8031 55.3896 47.4924 55.578L46.2132 56.3133C46.0543 56.3978 45.8776 56.4435 45.6975 56.4466C45.5175 56.4498 45.3393 56.4104 45.1775 56.3315Z" fill="#7146CE"/>
<path d="M47.7977 57.8387L46.6889 57.2006C46.4209 57.0487 46.4574 56.7813 46.762 56.593L48.0414 55.8577C48.1983 55.7698 48.3736 55.7197 48.5534 55.7112C48.7332 55.7028 48.9125 55.7363 49.077 55.8091L50.1857 56.4471C50.4537 56.6051 50.4172 56.8664 50.1126 57.0548L48.8333 57.7901C48.677 57.8798 48.5015 57.931 48.3214 57.9395C48.1412 57.9479 47.9617 57.9134 47.7977 57.8387Z" fill="#7146CE"/>
<path d="M50.4295 59.3517L49.3208 58.7136C49.0527 58.5617 49.0893 58.2943 49.3939 58.1059L50.6732 57.3646C50.8306 57.2777 51.0062 57.2286 51.186 57.2212C51.3657 57.2138 51.5447 57.2483 51.7088 57.322L52.8175 57.9601C53.0855 58.112 53.049 58.3794 52.7444 58.5678L51.4651 59.3091C51.3077 59.396 51.1321 59.4451 50.9524 59.4525C50.7726 59.4599 50.5936 59.4254 50.4295 59.3517Z" fill="#7146CE"/>
<path d="M53.0973 60.883L51.9886 60.245C51.7206 60.087 51.7571 59.8196 52.0617 59.6373L53.341 58.902C53.498 58.8137 53.6737 58.7638 53.8537 58.7564C54.0337 58.749 54.2129 58.7843 54.3766 58.8595L55.4853 59.4671C55.7534 59.6251 55.7229 59.8925 55.4122 60.0748L54.133 60.8101C53.978 60.9019 53.8036 60.9562 53.6238 60.9689C53.444 60.9815 53.2637 60.9521 53.0973 60.883Z" fill="#7146CE"/>
<path d="M55.7169 62.3898L54.6081 61.7518C54.3401 61.5999 54.3766 61.3325 54.6812 61.1441L55.9605 60.4088C56.117 60.3196 56.2924 60.2686 56.4725 60.2602C56.6525 60.2517 56.832 60.286 56.9962 60.3602L58.1049 60.9983C58.3729 61.1502 58.3424 61.4175 58.0318 61.6059L56.7525 62.3473C56.595 62.4342 56.4195 62.4833 56.2397 62.4907C56.0599 62.4981 55.8809 62.4635 55.7169 62.3898Z" fill="#7146CE"/>
<path d="M58.3486 63.9031L57.2398 63.2651C56.9718 63.1132 57.0084 62.8458 57.3129 62.6574L58.5923 61.916C58.7497 61.8292 58.9253 61.7801 59.105 61.7727C59.2848 61.7653 59.4638 61.7998 59.6278 61.8735L60.7366 62.4812C61.0046 62.6331 60.9681 62.9005 60.6635 63.0889L59.3842 63.8302C59.2292 63.922 59.0548 63.9763 58.875 63.989C58.6952 64.0017 58.515 63.9723 58.3486 63.9031Z" fill="#7146CE"/>
<path d="M61.0166 65.4284L59.9079 64.7903C59.646 64.6384 59.6764 64.371 59.981 64.1827L61.2603 63.4473C61.4168 63.3581 61.5922 63.3072 61.7722 63.2987C61.9523 63.2903 62.1317 63.3245 62.2959 63.3987L63.4107 64.0368C63.6727 64.1887 63.6422 64.4561 63.3315 64.6445L62.0522 65.3858C61.8948 65.4727 61.7192 65.5218 61.5395 65.5292C61.3597 65.5366 61.1807 65.5021 61.0166 65.4284Z" fill="#7146CE"/>
<path d="M23.6307 47.4957L22.5219 46.8577C22.2539 46.7057 22.2905 46.4384 22.595 46.25L23.8744 45.5086C24.0318 45.4217 24.2073 45.3726 24.3871 45.3652C24.5669 45.3579 24.7459 45.3924 24.9099 45.4661L26.0187 46.0737C26.2867 46.2257 26.2563 46.493 25.9456 46.6814L24.6663 47.4228C24.5113 47.5145 24.3369 47.5689 24.1571 47.5816C23.9773 47.5942 23.7971 47.5648 23.6307 47.4957Z" fill="#7146CE"/>
<path d="M26.2928 49.0091L25.1841 48.3711C24.916 48.2191 24.9526 47.9518 25.2572 47.7634L26.5365 47.022C26.6939 46.9351 26.8694 46.886 27.0492 46.8787C27.229 46.8713 27.408 46.9058 27.5721 46.9795L28.6808 47.5872C28.9488 47.7391 28.9123 48.0065 28.6077 48.1948L27.3284 48.9362C27.1734 49.028 26.999 49.0823 26.8192 49.095C26.6394 49.1077 26.4592 49.0783 26.2928 49.0091Z" fill="#7146CE"/>
<path d="M28.9186 50.5342L27.8099 49.8961C27.5419 49.7442 27.5784 49.4768 27.883 49.2884L29.1623 48.5471C29.3198 48.4602 29.4953 48.4111 29.6751 48.4037C29.8548 48.3963 30.0339 48.4308 30.1979 48.5045L31.3127 49.1122C31.5747 49.2641 31.5442 49.5315 31.2335 49.7199L29.9543 50.4612C29.7993 50.553 29.6249 50.6074 29.4451 50.62C29.2653 50.6327 29.085 50.6033 28.9186 50.5342Z" fill="#7146CE"/>
<path d="M31.5505 52.0474L30.4417 51.4093C30.1737 51.2574 30.2103 50.9901 30.5148 50.8017L31.7759 50.0482C31.9333 49.9613 32.1089 49.9122 32.2886 49.9048C32.4684 49.8974 32.6474 49.9319 32.8115 50.0056L33.9202 50.6133C34.1883 50.7652 34.1578 51.0326 33.8471 51.221L32.5678 51.9623C32.416 52.0532 32.2454 52.1081 32.069 52.1228C31.8927 52.1376 31.7153 52.1118 31.5505 52.0474Z" fill="#7146CE"/>
<path d="M34.2127 53.5603L33.104 52.9526C32.8359 52.8007 32.8725 52.5333 33.1771 52.345L34.4564 51.6097C34.6133 51.5214 34.789 51.4715 34.9691 51.4641C35.1491 51.4567 35.3283 51.492 35.492 51.5671L36.6007 52.2052C36.8687 52.3571 36.8383 52.6245 36.5276 52.8129L35.2483 53.5482C35.0885 53.6303 34.9117 53.6741 34.7319 53.6762C34.5522 53.6783 34.3744 53.6387 34.2127 53.5603Z" fill="#7146CE"/>
<path d="M36.8382 55.0857L35.7294 54.4477C35.4675 54.2957 35.4979 54.0284 35.8025 53.84L37.0818 53.0986C37.2393 53.0117 37.4148 52.9626 37.5946 52.9553C37.7744 52.9479 37.9534 52.9824 38.1174 53.0561L39.2323 53.6638C39.4942 53.8157 39.4637 54.0831 39.1592 54.2714L37.8677 55.0432C37.711 55.1291 37.5365 55.1777 37.3579 55.185C37.1793 55.1924 37.0014 55.1584 36.8382 55.0857Z" fill="#7146CE"/>
<path d="M39.4697 56.5988L38.361 55.9911C38.0991 55.8392 38.1295 55.5718 38.4341 55.3834L39.7134 54.6421C39.8709 54.5552 40.0464 54.5061 40.2262 54.4987C40.4059 54.4913 40.585 54.5258 40.749 54.5995L41.8638 55.2376C42.1258 55.3895 42.0953 55.6569 41.7907 55.8453L40.5054 56.5806C40.3465 56.665 40.1698 56.7107 39.9897 56.7139C39.8097 56.717 39.6315 56.6776 39.4697 56.5988Z" fill="#7146CE"/>
<path d="M42.132 58.1241L41.0172 57.486C40.7552 57.3341 40.7857 57.0667 41.0964 56.8783L42.3757 56.1369C42.5331 56.05 42.7087 56.001 42.8884 55.9936C43.0682 55.9862 43.2472 56.0207 43.4113 56.0944L44.52 56.7021C44.7881 56.854 44.7515 57.1214 44.4469 57.3098L43.1676 58.0511C43.0126 58.1429 42.8383 58.1973 42.6585 58.2099C42.4787 58.2226 42.2984 58.1932 42.132 58.1241Z" fill="#7146CE"/>
<path d="M44.7642 59.6374L43.6494 59.0298C43.3874 58.8779 43.4179 58.6105 43.7225 58.4221L45.0078 57.6807C45.1653 57.5938 45.3408 57.5447 45.5206 57.5374C45.7004 57.53 45.8794 57.5645 46.0435 57.6382L47.1522 58.2763C47.4141 58.4282 47.3837 58.6956 47.0791 58.8839L45.7876 59.5888C45.6327 59.6761 45.4594 59.726 45.2817 59.7344C45.1039 59.7428 44.9267 59.7096 44.7642 59.6374Z" fill="#7146CE"/>
<path d="M47.3889 61.1442L46.2802 60.5366C46.0183 60.3786 46.0487 60.1112 46.3533 59.9289L47.6143 59.1632C47.7724 59.0749 47.9491 59.025 48.1301 59.0176C48.3111 59.0102 48.4913 59.0455 48.6561 59.1207L49.7648 59.7283C50.0267 59.8863 49.9962 60.1537 49.6916 60.336L48.4063 61.0713C48.2542 61.1619 48.083 61.2157 47.9063 61.2284C47.7296 61.2411 47.5524 61.2122 47.3889 61.1442Z" fill="#7146CE"/>
<path d="M50.0514 62.6757L48.9427 62.068C48.6747 61.9161 48.7051 61.6487 49.0158 61.4603L50.2951 60.719C50.4525 60.6321 50.6281 60.583 50.8079 60.5756C50.9876 60.5682 51.1666 60.6027 51.3307 60.6764L52.4394 61.3145C52.7075 61.4664 52.6709 61.7338 52.3663 61.9222L51.0871 62.6635C50.9272 62.7457 50.7504 62.7895 50.5707 62.7916C50.3909 62.7937 50.2131 62.754 50.0514 62.6757Z" fill="#7146CE"/>
<path d="M52.6835 64.1887L51.5687 63.5811C51.3068 63.4231 51.3372 63.1618 51.6479 62.9734L52.9272 62.2381C53.084 62.1493 53.2597 62.0992 53.4398 62.0918C53.62 62.0844 53.7992 62.12 53.9628 62.1956L55.0715 62.8336C55.3396 62.9855 55.303 63.2529 54.9984 63.4413L53.7192 64.1766C53.5593 64.2587 53.3825 64.3026 53.2028 64.3047C53.023 64.3068 52.8452 64.2671 52.6835 64.1887Z" fill="#7146CE"/>
<path d="M55.3147 65.6958L54.1999 65.0578C53.9379 64.9058 53.9684 64.6385 54.273 64.4501L55.5584 63.7148C55.7148 63.6255 55.8903 63.5746 56.0703 63.5661C56.2504 63.5577 56.4298 63.592 56.594 63.6662L57.7027 64.3042C57.9647 64.4561 57.9342 64.7235 57.6296 64.9119L56.3503 65.6533C56.1929 65.7402 56.0173 65.7893 55.8376 65.7966C55.6578 65.804 55.4788 65.7695 55.3147 65.6958Z" fill="#7146CE"/>
<path d="M57.9706 67.2271L56.8619 66.6194C56.5939 66.4675 56.6243 66.2001 56.935 66.0117L58.2143 65.2764C58.3717 65.1895 58.5473 65.1404 58.727 65.1331C58.9068 65.1257 59.0858 65.1602 59.2499 65.2339L60.3586 65.872C60.6267 66.0239 60.5901 66.2913 60.2855 66.4796L59.0062 67.2149C58.8464 67.297 58.6696 67.3409 58.4899 67.343C58.3101 67.3451 58.1323 67.3054 57.9706 67.2271Z" fill="#7146CE"/>
<path d="M23.0645 50.7834L19.3485 48.6505C19.0865 48.4925 19.117 48.2312 19.4216 48.0428L20.7009 47.3075C20.8578 47.2192 21.0335 47.1693 21.2135 47.1619C21.3936 47.1545 21.5728 47.1898 21.7365 47.2649L25.4525 49.3979C25.7206 49.5498 25.684 49.8172 25.3794 50.0056L24.1001 50.7469C23.9422 50.8329 23.7664 50.8809 23.5866 50.8872C23.4069 50.8936 23.2281 50.858 23.0645 50.7834Z" fill="#7146CE"/>
<path d="M25.7505 52.3268L24.6357 51.6887C24.3737 51.5368 24.4042 51.2694 24.7088 51.081L25.9942 50.3457C26.1516 50.2589 26.3272 50.2098 26.5069 50.2024C26.6867 50.195 26.8657 50.2295 27.0298 50.3032L28.1385 50.9413C28.4005 51.0932 28.37 51.3606 28.0654 51.549L26.7861 52.2842C26.6287 52.3711 26.4531 52.4202 26.2733 52.4276C26.0935 52.435 25.9145 52.4005 25.7505 52.3268Z" fill="#7146CE"/>
<path d="M28.3765 53.8338L27.2678 53.1958C27.0058 53.0438 27.0363 52.7765 27.3409 52.5881L28.6263 51.8528C28.7832 51.7649 28.9585 51.7148 29.1383 51.7064C29.3181 51.6979 29.4974 51.7314 29.6619 51.8042L30.7706 52.4119C31.0325 52.5638 31.0021 52.8312 30.6975 53.0196L29.4121 53.7548C29.2576 53.8476 29.0835 53.903 28.9037 53.9167C28.7239 53.9304 28.5433 53.9021 28.3765 53.8338Z" fill="#7146CE"/>
<path d="M31.0082 55.347L29.8995 54.7089C29.6375 54.557 29.668 54.2896 29.9726 54.1012L31.2519 53.3599C31.4093 53.273 31.5849 53.2239 31.7647 53.2165C31.9444 53.2091 32.1235 53.2436 32.2875 53.3173L33.4023 53.9554C33.6642 54.1073 33.6338 54.3747 33.3292 54.5631L32.0438 55.3044C31.8864 55.3913 31.7108 55.4404 31.5311 55.4478C31.3513 55.4552 31.1723 55.4207 31.0082 55.347Z" fill="#7146CE"/>
<path d="M33.6708 56.8725L32.556 56.2649C32.2941 56.1069 32.3245 55.8395 32.6352 55.6572L33.9145 54.9219C34.0714 54.834 34.2468 54.7839 34.4265 54.7754C34.6063 54.767 34.7856 54.8005 34.9501 54.8733L36.0588 55.4809C36.3269 55.6389 36.2903 55.9063 35.9857 56.0886L34.7064 56.8239C34.55 56.9132 34.3745 56.9641 34.1945 56.9725C34.0144 56.981 33.835 56.9467 33.6708 56.8725Z" fill="#7146CE"/>
<path d="M36.3023 58.3856L35.1874 57.7475C34.9255 57.5956 34.9559 57.3282 35.2605 57.1399L36.546 56.3985C36.7034 56.3116 36.879 56.2625 37.0587 56.2551C37.2385 56.2477 37.4175 56.2823 37.5816 56.356L38.6903 56.994C38.9522 57.1459 38.9218 57.4133 38.6172 57.6017L37.3379 58.3431C37.1805 58.4299 37.0049 58.479 36.8251 58.4864C36.6453 58.4938 36.4663 58.4593 36.3023 58.3856Z" fill="#7146CE"/>
<path d="M38.9582 59.9169L37.8678 59.2788C37.5997 59.1208 37.6302 58.8534 37.9409 58.6711L39.2201 57.9359C39.3769 57.8471 39.5527 57.7969 39.7328 57.7895C39.9129 57.7821 40.0922 57.8177 40.2558 57.8933L41.3645 58.501C41.6325 58.659 41.596 58.9264 41.2914 59.1087L40.0121 59.8439C39.8548 59.9387 39.6772 59.9947 39.494 60.0073C39.3107 60.02 39.127 59.989 38.9582 59.9169Z" fill="#7146CE"/>
<path d="M41.5898 61.424L40.481 60.7859C40.213 60.634 40.2435 60.3666 40.5541 60.1783L41.8334 59.443C41.9899 59.3537 42.1653 59.3028 42.3454 59.2943C42.5254 59.2859 42.7049 59.3202 42.8691 59.3943L43.9778 60.0324C44.2458 60.1843 44.2093 60.4517 43.9047 60.6401L42.6254 61.3814C42.468 61.4683 42.2924 61.5174 42.1126 61.5248C41.9328 61.5322 41.7538 61.4977 41.5898 61.424Z" fill="#7146CE"/>
<path d="M44.2215 62.9369L43.1067 62.3292C42.8447 62.1773 42.8752 61.9099 43.1859 61.7215L44.4652 60.9802C44.6226 60.8933 44.7982 60.8442 44.978 60.8368C45.1577 60.8294 45.3367 60.864 45.5008 60.9377L46.6095 61.5757C46.8775 61.7276 46.841 61.995 46.5364 62.1834L45.2571 62.9248C45.0973 63.0069 44.9205 63.0507 44.7407 63.0528C44.561 63.0549 44.3832 63.0152 44.2215 62.9369Z" fill="#7146CE"/>
<path d="M46.877 64.4622L45.7866 63.8242C45.5186 63.6723 45.5551 63.4049 45.8597 63.2165L47.139 62.4812C47.2954 62.3919 47.4709 62.341 47.6509 62.3326C47.831 62.3241 48.0104 62.3584 48.1746 62.4326L49.2833 63.0706C49.5514 63.2226 49.5148 63.4899 49.2102 63.6783L47.9309 64.4136C47.7717 64.5044 47.5931 64.5562 47.4099 64.5647C47.2266 64.5731 47.044 64.538 46.877 64.4622Z" fill="#7146CE"/>
<path d="M49.5096 65.9753L48.4009 65.3676C48.1328 65.2157 48.1694 64.9483 48.474 64.76L49.7533 64.0186C49.9107 63.9317 50.0863 63.8826 50.266 63.8752C50.4458 63.8679 50.6248 63.9024 50.7889 63.9761L51.8976 64.6141C52.1657 64.766 52.1291 65.0334 51.8245 65.2218L50.5452 65.9632C50.3854 66.0453 50.2086 66.0891 50.0288 66.0912C49.8491 66.0934 49.6713 66.0537 49.5096 65.9753Z" fill="#7146CE"/>
<path d="M52.1405 67.4884L51.0318 66.8503C50.7638 66.6984 50.7942 66.431 51.1049 66.2426L52.3842 65.5013C52.5417 65.4144 52.7172 65.3653 52.897 65.3579C53.0768 65.3505 53.2558 65.385 53.4199 65.4587L54.5285 66.0968C54.7966 66.2487 54.76 66.5161 54.4554 66.7045L53.1762 67.4459C53.0187 67.5328 52.8432 67.5818 52.6634 67.5892C52.4836 67.5966 52.3046 67.5621 52.1405 67.4884Z" fill="#7146CE"/>
<path d="M51.7265 70.788L50.6178 70.1499C50.3497 69.998 50.3802 69.7306 50.6909 69.5422L55.0405 67.0264C55.1979 66.9395 55.3735 66.8904 55.5532 66.8831C55.733 66.8757 55.912 66.9102 56.0761 66.9839L57.1848 67.622C57.4528 67.7739 57.4224 68.0413 57.1117 68.2296L52.7621 70.7454C52.6047 70.8323 52.4291 70.8814 52.2493 70.8888C52.0696 70.8962 51.8905 70.8616 51.7265 70.788Z" fill="#7146CE"/>
<path d="M17.3865 51.057L16.2778 50.4189C16.0098 50.267 16.0463 49.9996 16.3509 49.8112L17.6302 49.0759C17.7872 48.9881 17.9625 48.9379 18.1423 48.9295C18.322 48.9211 18.5013 48.9546 18.6658 49.0273L19.7745 49.6654C20.0426 49.8234 20.006 50.0847 19.7014 50.2731L18.4222 51.0083C18.2659 51.0981 18.0904 51.1493 17.9102 51.1577C17.7301 51.1662 17.5506 51.1316 17.3865 51.057Z" fill="#7146CE"/>
<path d="M20.0185 52.5699L18.9098 51.9622C18.6417 51.8103 18.6783 51.5429 18.9829 51.3546L20.2621 50.6132C20.4196 50.5263 20.5951 50.4772 20.7749 50.4698C20.9547 50.4624 21.1337 50.497 21.2978 50.5706L22.4065 51.2087C22.6745 51.3606 22.638 51.628 22.3334 51.8164L21.0541 52.5578C20.8943 52.6399 20.7175 52.6837 20.5377 52.6858C20.358 52.6879 20.1802 52.6482 20.0185 52.5699Z" fill="#7146CE"/>
<path d="M22.6745 54.0952L21.5658 53.4875C21.2977 53.3295 21.3343 53.0621 21.6389 52.8798L22.9182 52.1446C23.0751 52.0563 23.2508 52.0064 23.4308 51.999C23.6109 51.9916 23.7901 52.0269 23.9538 52.102L25.0625 52.7097C25.3305 52.8677 25.3001 53.1351 24.9894 53.3174L23.7101 54.0527C23.5533 54.1414 23.3776 54.1916 23.1975 54.199C23.0173 54.2064 22.8381 54.1708 22.6745 54.0952Z" fill="#7146CE"/>
<path d="M25.3063 55.6083L24.1976 55.0007C23.9296 54.8487 23.9661 54.5814 24.2707 54.393L25.55 53.6577C25.7065 53.5685 25.8819 53.5175 26.0619 53.5091C26.242 53.5006 26.4214 53.5349 26.5856 53.6091L27.6943 54.2472C27.9624 54.3991 27.9319 54.6665 27.6212 54.8548L26.342 55.5962C26.1821 55.6783 26.0053 55.7222 25.8256 55.7243C25.6458 55.7264 25.468 55.6867 25.3063 55.6083Z" fill="#7146CE"/>
<path d="M35.8882 61.6851L26.8296 56.4834C26.5615 56.3315 26.5981 56.0641 26.9027 55.8757L28.1819 55.1343C28.3394 55.0474 28.5149 54.9984 28.6947 54.991C28.8745 54.9836 29.0535 55.0181 29.2176 55.0918L38.2762 60.2935C38.5381 60.4454 38.5077 60.7128 38.2031 60.9012L36.9238 61.6365C36.7673 61.7257 36.5919 61.7767 36.4118 61.7851C36.2318 61.7936 36.0523 61.7593 35.8882 61.6851Z" fill="#7146CE"/>
<path d="M38.5139 63.1984L37.4052 62.5604C37.1433 62.4084 37.1737 62.1411 37.4783 61.9527L38.7576 61.2113C38.9161 61.1243 39.0927 61.0753 39.2735 61.0679C39.4542 61.0605 39.6342 61.095 39.7993 61.1688L40.908 61.8068C41.17 61.9588 41.1395 62.2261 40.8349 62.4145L39.5496 63.1559C39.3921 63.2428 39.2166 63.2919 39.0368 63.2993C38.857 63.3066 38.678 63.2721 38.5139 63.1984Z" fill="#7146CE"/>
<path d="M41.1448 64.7113L40.0361 64.0732C39.7741 63.9213 39.8046 63.6539 40.1092 63.4655L41.3885 62.7242C41.5459 62.6373 41.7215 62.5882 41.9012 62.5808C42.081 62.5734 42.26 62.608 42.4241 62.6816L43.5389 63.3197C43.8008 63.4716 43.7704 63.739 43.4658 63.9274L42.1804 64.6687C42.023 64.7556 41.8474 64.8047 41.6676 64.8121C41.4879 64.8195 41.3089 64.785 41.1448 64.7113Z" fill="#7146CE"/>
<path d="M43.8076 66.2367L42.6927 65.5986C42.4308 65.4467 42.4612 65.1793 42.7719 64.9909L44.0512 64.2496C44.2087 64.1627 44.3842 64.1136 44.564 64.1062C44.7437 64.0988 44.9228 64.1333 45.0868 64.207L46.1956 64.8451C46.4636 64.997 46.427 65.2644 46.1225 65.4528L44.8432 66.1941C44.6857 66.281 44.5102 66.3301 44.3304 66.3375C44.1506 66.3449 43.9716 66.3104 43.8076 66.2367Z" fill="#7146CE"/>
<path d="M46.439 67.7497L45.3242 67.1116C45.0622 66.9597 45.0927 66.6923 45.3973 66.5039L46.6826 65.7626C46.8401 65.6757 47.0156 65.6266 47.1954 65.6192C47.3752 65.6118 47.5542 65.6463 47.7183 65.72L48.827 66.3581C49.0889 66.51 49.0585 66.7774 48.7539 66.9658L47.4746 67.7071C47.3172 67.794 47.1416 67.8431 46.9618 67.8505C46.7821 67.8579 46.603 67.8234 46.439 67.7497Z" fill="#7146CE"/>
<path d="M49.0645 69.2629L47.9558 68.6249C47.6938 68.4729 47.7243 68.2056 48.0289 68.0172L49.3142 67.2758C49.4717 67.1889 49.6472 67.1398 49.827 67.1324C50.0068 67.1251 50.1858 67.1596 50.3498 67.2333L51.4586 67.8713C51.7205 68.0232 51.6901 68.2906 51.3855 68.479L50.1001 69.2204C49.9427 69.3073 49.7671 69.3564 49.5873 69.3637C49.4076 69.3711 49.2285 69.3366 49.0645 69.2629Z" fill="#7146CE"/>
<path d="M29.6442 43.5095L28.5903 42.9018C28.3223 42.7499 28.3588 42.4825 28.6634 42.2941L29.0898 42.0511C29.2468 41.9628 29.4225 41.9129 29.6025 41.9055C29.7825 41.8981 29.9617 41.9334 30.1254 42.0085L31.1854 42.6162C31.4474 42.7742 31.4169 43.0355 31.1123 43.2239L30.6798 43.467C30.5224 43.5539 30.3468 43.6029 30.167 43.6103C29.9873 43.6177 29.8082 43.5832 29.6442 43.5095Z" fill="#EFE1EE"/>
<path d="M32.2753 45.0165L31.2214 44.4089C30.9534 44.257 30.9838 43.9896 31.2945 43.8012L31.7209 43.5581C31.8774 43.4689 32.0528 43.4179 32.2328 43.4095C32.4129 43.401 32.5923 43.4353 32.7565 43.5095L33.8165 44.1172C34.0784 44.2691 34.048 44.5365 33.7373 44.7249L33.3109 44.974C33.1535 45.0609 32.9779 45.11 32.7981 45.1174C32.6184 45.1248 32.4393 45.0902 32.2753 45.0165Z" fill="#EFE1EE"/>
<path d="M34.907 46.5296L33.8531 45.922C33.585 45.77 33.6155 45.5027 33.9262 45.3143L34.3526 45.0651C34.5101 44.9782 34.6856 44.9292 34.8654 44.9218C35.0452 44.9144 35.2242 44.9489 35.3883 45.0226L36.4421 45.6303C36.7102 45.7822 36.6797 46.0496 36.369 46.238L35.9426 46.4871C35.7852 46.574 35.6096 46.6231 35.4299 46.6305C35.2501 46.6379 35.0711 46.6033 34.907 46.5296Z" fill="#EFE1EE"/>
<path d="M37.5388 48.0427L36.4787 47.435C36.2168 47.2831 36.2473 47.0157 36.5579 46.8273L36.9844 46.5782C37.1418 46.4913 37.3174 46.4422 37.4972 46.4348C37.6769 46.4274 37.8559 46.4619 38.02 46.5356L39.0739 47.1433C39.3419 47.2952 39.3115 47.5626 39.0008 47.751L38.5743 48.0001C38.4169 48.087 38.2414 48.1361 38.0616 48.1435C37.8818 48.1509 37.7028 48.1164 37.5388 48.0427Z" fill="#EFE1EE"/>
<path d="M40.1703 49.5558L39.1103 48.9482C38.8483 48.7962 38.8788 48.5289 39.1834 48.3405L39.6159 48.0913C39.7727 48.0026 39.9485 47.9524 40.1286 47.945C40.3087 47.9376 40.488 47.9732 40.6516 48.0488L41.7054 48.6565C41.9735 48.8145 41.9369 49.0818 41.6323 49.2642L41.2059 49.5072C41.0489 49.5951 40.8736 49.6452 40.6939 49.6537C40.5141 49.6621 40.3348 49.6286 40.1703 49.5558Z" fill="#EFE1EE"/>
<path d="M42.8021 51.063L41.7421 50.4554C41.4802 50.3034 41.5106 50.0361 41.8152 49.8477L42.2478 49.6046C42.4042 49.5154 42.5797 49.4644 42.7597 49.456C42.9398 49.4475 43.1192 49.4818 43.2834 49.556L44.3373 50.1637C44.6053 50.3156 44.5688 50.583 44.2642 50.7714L43.8377 51.0205C43.6803 51.1074 43.5047 51.1565 43.325 51.1639C43.1452 51.1713 42.9662 51.1367 42.8021 51.063Z" fill="#EFE1EE"/>
<path d="M45.4338 52.5759L44.3738 51.9682C44.1119 51.8163 44.1424 51.5489 44.4469 51.3606L44.8795 51.1114C45.0369 51.0245 45.2125 50.9754 45.3923 50.968C45.572 50.9607 45.751 50.9952 45.9151 51.0689L46.969 51.6766C47.237 51.8285 47.2005 52.0959 46.8959 52.2842L46.4694 52.5334C46.312 52.6203 46.1364 52.6694 45.9567 52.6768C45.7769 52.6841 45.5979 52.6496 45.4338 52.5759Z" fill="#EFE1EE"/>
<path d="M48.0654 54.0891L47.0055 53.4814C46.7374 53.3295 46.774 53.0621 47.0786 52.8738L47.5111 52.6246C47.6685 52.5377 47.8441 52.4886 48.0239 52.4813C48.2036 52.4739 48.3827 52.5084 48.5467 52.5821L49.6006 53.1898C49.8687 53.3417 49.8321 53.6091 49.5275 53.7974L49.1011 54.0466C48.9436 54.1335 48.7681 54.1826 48.5883 54.1899C48.4085 54.1973 48.2295 54.1628 48.0654 54.0891Z" fill="#EFE1EE"/>
<path d="M50.6911 55.6024L49.6372 54.9947C49.3691 54.8428 49.4057 54.5754 49.7103 54.387L50.1367 54.1378C50.2941 54.051 50.4697 54.0019 50.6495 53.9945C50.8293 53.9871 51.0083 54.0216 51.1723 54.0953L52.2323 54.703C52.4943 54.8549 52.4638 55.1223 52.1592 55.3107L51.7267 55.5537C51.5702 55.643 51.3948 55.6939 51.2147 55.7024C51.0347 55.7108 50.8552 55.6765 50.6911 55.6024Z" fill="#EFE1EE"/>
<path d="M53.3227 57.1093L52.2688 56.5016C52.0007 56.3436 52.0373 56.0762 52.3419 55.8939L52.7683 55.6508C52.9253 55.563 53.1006 55.5128 53.2803 55.5044C53.4601 55.4959 53.6394 55.5295 53.8039 55.6022L54.8639 56.2099C55.1259 56.3618 55.0954 56.6292 54.7908 56.8176L54.3583 57.0667C54.2015 57.1555 54.0257 57.2056 53.8456 57.213C53.6655 57.2204 53.4862 57.1849 53.3227 57.1093Z" fill="#EFE1EE"/>
<path d="M56.0336 58.6709L54.9797 58.0632C54.7117 57.9113 54.7482 57.644 55.0528 57.4556L55.4792 57.2064C55.6366 57.1195 55.8122 57.0704 55.992 57.0631C56.1718 57.0557 56.3508 57.0902 56.5148 57.1639L57.5748 57.7716C57.8429 57.9235 57.8063 58.1909 57.5017 58.3792L57.0692 58.6284C56.9118 58.7153 56.7362 58.7644 56.5564 58.7718C56.3767 58.7791 56.1977 58.7446 56.0336 58.6709Z" fill="#EFE1EE"/>
<path d="M58.6657 60.1843L57.6118 59.5766C57.3437 59.4247 57.3803 59.1573 57.6849 58.9689L58.1113 58.7259C58.2683 58.6376 58.444 58.5877 58.624 58.5803C58.804 58.5729 58.9832 58.6082 59.1469 58.6833L60.2069 59.291C60.4689 59.449 60.4384 59.7164 60.1338 59.8987L59.7013 60.1417C59.5439 60.2286 59.3683 60.2777 59.1885 60.2851C59.0088 60.2925 58.8298 60.258 58.6657 60.1843Z" fill="#EFE1EE"/>
<path d="M61.2966 61.6911L60.2427 61.0834C59.9746 60.9315 60.0112 60.6641 60.3158 60.4757L60.7422 60.2327C60.8986 60.1434 61.0741 60.0925 61.2541 60.084C61.4342 60.0756 61.6136 60.1098 61.7778 60.184L62.8378 60.7917C63.0997 60.9436 63.0693 61.211 62.7647 61.3994L62.3322 61.6485C62.1747 61.7354 61.9992 61.7845 61.8194 61.7919C61.6396 61.7993 61.4606 61.7648 61.2966 61.6911Z" fill="#EFE1EE"/>
<path d="M63.9287 63.2044L62.8747 62.5967C62.6067 62.4448 62.6432 62.1774 62.9478 61.989L63.3743 61.7399C63.5317 61.653 63.7073 61.6039 63.887 61.5965C64.0668 61.5891 64.2458 61.6237 64.4099 61.6974L65.4699 62.305C65.7318 62.457 65.7014 62.7243 65.3968 62.9127L64.9642 63.1618C64.8068 63.2487 64.6312 63.2978 64.4515 63.3052C64.2717 63.3126 64.0927 63.2781 63.9287 63.2044Z" fill="#EFE1EE"/>
<path d="M26.6221 45.284L25.5134 44.6459C25.2453 44.494 25.2758 44.2266 25.5865 44.0382L26.8658 43.2969C27.0232 43.21 27.1988 43.1609 27.3786 43.1535C27.5583 43.1461 27.7373 43.1806 27.9014 43.2543L29.0101 43.8924C29.2782 44.0443 29.2416 44.3117 28.937 44.5001L27.6577 45.2414C27.5003 45.3283 27.3247 45.3774 27.1449 45.3848C26.9652 45.3922 26.7861 45.3577 26.6221 45.284Z" fill="#EFE1EE"/>
<path d="M29.2538 46.7971L28.1451 46.1894C27.8771 46.0375 27.9075 45.7701 28.2182 45.5818L29.4975 44.8465C29.6549 44.7596 29.8305 44.7105 30.0103 44.7031C30.1901 44.6957 30.3691 44.7302 30.5331 44.8039L31.6419 45.442C31.9099 45.5939 31.8733 45.8613 31.5687 46.0497L30.2894 46.785C30.1296 46.8671 29.9528 46.9109 29.7731 46.913C29.5933 46.9151 29.4155 46.8754 29.2538 46.7971Z" fill="#EFE1EE"/>
<path d="M31.9099 48.3223L30.8012 47.6842C30.5332 47.5323 30.5698 47.2649 30.8743 47.0766L32.1536 46.3352C32.3111 46.2483 32.4866 46.1992 32.6664 46.1918C32.8462 46.1845 33.0252 46.219 33.1892 46.2927L34.298 46.9307C34.566 47.0826 34.5356 47.35 34.2249 47.5384L32.9456 48.2798C32.7881 48.3667 32.6126 48.4157 32.4328 48.4231C32.253 48.4305 32.074 48.396 31.9099 48.3223Z" fill="#EFE1EE"/>
<path d="M34.5415 49.8354L33.4328 49.2277C33.1648 49.0758 33.2014 48.8084 33.506 48.62L34.7852 47.8786C34.9427 47.7917 35.1182 47.7426 35.298 47.7353C35.4778 47.7279 35.6568 47.7624 35.8209 47.8361L36.9296 48.4742C37.1976 48.6261 37.1611 48.8935 36.8565 49.0818L35.5772 49.8171C35.4183 49.9016 35.2416 49.9473 35.0616 49.9504C34.8816 49.9536 34.7033 49.9142 34.5415 49.8354Z" fill="#EFE1EE"/>
<path d="M37.1736 51.3424L36.0405 50.7043C35.7725 50.5524 35.809 50.285 36.1136 50.0966L37.3929 49.3613C37.5498 49.2735 37.7252 49.2233 37.9049 49.2149C38.0847 49.2065 38.264 49.24 38.4285 49.3127L39.5372 49.9508C39.8053 50.1088 39.7687 50.3701 39.4641 50.5585L38.1849 51.2937C38.0316 51.3795 37.8604 51.4285 37.6849 51.437C37.5094 51.4454 37.3344 51.413 37.1736 51.3424Z" fill="#EFE1EE"/>
<path d="M39.8289 52.874L38.7202 52.2663C38.4521 52.1144 38.4887 51.847 38.7933 51.6587L40.0726 50.9173C40.23 50.8304 40.4056 50.7813 40.5853 50.7739C40.7651 50.7665 40.9441 50.8011 41.1082 50.8748L42.2169 51.5128C42.485 51.6647 42.4545 51.9321 42.1438 52.1205L40.8645 52.8558C40.7056 52.9402 40.5289 52.9859 40.3489 52.9891C40.1689 52.9923 39.9907 52.9528 39.8289 52.874Z" fill="#EFE1EE"/>
<path d="M42.4607 54.3809L41.352 53.7732C41.084 53.6152 41.1206 53.3478 41.4251 53.1655L42.7044 52.4302C42.8614 52.3419 43.0371 52.292 43.2171 52.2847C43.3971 52.2773 43.5764 52.3126 43.74 52.3877L44.8488 52.9954C45.1168 53.1534 45.0864 53.4207 44.7757 53.603L43.4964 54.3383C43.3396 54.4271 43.1639 54.4772 42.9837 54.4846C42.8036 54.492 42.6243 54.4565 42.4607 54.3809Z" fill="#EFE1EE"/>
<path d="M45.1165 55.9123L44.0078 55.3047C43.7458 55.1528 43.7763 54.8854 44.0809 54.697L45.3601 53.9556C45.5176 53.8687 45.6931 53.8196 45.8729 53.8123C46.0527 53.8049 46.2317 53.8394 46.3958 53.9131L47.5106 54.5512C47.7725 54.7031 47.7421 54.9705 47.4375 55.1588L46.1521 55.9002C45.9922 55.9823 45.8155 56.0262 45.6357 56.0283C45.456 56.0304 45.2782 55.9907 45.1165 55.9123Z" fill="#EFE1EE"/>
<path d="M47.7486 57.4254L46.6399 56.7873C46.3718 56.6293 46.4084 56.368 46.713 56.1796L47.9922 55.4443C48.1492 55.3561 48.3249 55.3062 48.5049 55.2988C48.6849 55.2914 48.8642 55.3267 49.0279 55.4018L50.1427 56.0399C50.4046 56.1918 50.3742 56.4592 50.0635 56.6475L48.7842 57.3828C48.6268 57.4697 48.4512 57.5188 48.2714 57.5262C48.0916 57.5336 47.9126 57.4991 47.7486 57.4254Z" fill="#EFE1EE"/>
<path d="M50.3807 58.9322L49.2719 58.2941C49.0039 58.1422 49.0405 57.8748 49.3451 57.6865L50.6243 56.9512C50.7808 56.8619 50.9563 56.811 51.1363 56.8025C51.3163 56.7941 51.4958 56.8284 51.66 56.9026L52.7687 57.5406C53.0367 57.6925 53.0063 57.9599 52.6956 58.1483L51.4163 58.8897C51.2589 58.9766 51.0833 59.0256 50.9035 59.033C50.7237 59.0404 50.5447 59.0059 50.3807 58.9322Z" fill="#EFE1EE"/>
<path d="M53.0425 60.4637L51.9277 59.8256C51.6657 59.6737 51.6962 59.4063 52.0008 59.2179L53.2861 58.4826C53.4436 58.3957 53.6192 58.3466 53.7989 58.3393C53.9787 58.3319 54.1577 58.3664 54.3218 58.4401L55.4305 59.0781C55.6924 59.2301 55.662 59.4974 55.3574 59.6858L54.0781 60.4211C53.9207 60.508 53.7451 60.5571 53.5653 60.5645C53.3855 60.5719 53.2065 60.5374 53.0425 60.4637Z" fill="#EFE1EE"/>
<path d="M55.6681 61.9707L54.5594 61.3326C54.2974 61.1807 54.3279 60.9133 54.6325 60.7249L55.9118 59.9896C56.0687 59.9018 56.2441 59.8516 56.4238 59.8432C56.6036 59.8348 56.7829 59.8682 56.9474 59.941L58.0622 60.5791C58.3242 60.731 58.2937 60.9984 57.9891 61.1868L56.7037 61.9221C56.5468 62.0099 56.3714 62.06 56.1917 62.0685C56.0119 62.0769 55.8326 62.0434 55.6681 61.9707Z" fill="#EFE1EE"/>
<path d="M58.3001 63.4837L57.1913 62.8457C56.9294 62.6938 56.9599 62.4264 57.2645 62.238L58.5437 61.4966C58.7012 61.4097 58.8767 61.3607 59.0565 61.3533C59.2363 61.3459 59.4153 61.3804 59.5794 61.4541L60.6942 62.0618C60.9561 62.2137 60.9256 62.4811 60.6211 62.6695L59.3357 63.4169C59.1802 63.5077 59.0056 63.561 58.8258 63.5726C58.646 63.5842 58.466 63.5538 58.3001 63.4837Z" fill="#EFE1EE"/>
<path d="M60.9619 65.0091L59.8472 64.4014C59.5852 64.2434 59.6157 63.976 59.9263 63.7937L61.2056 63.0584C61.3626 62.9706 61.5379 62.9204 61.7177 62.912C61.8974 62.9035 62.0767 62.937 62.2412 63.0098L63.35 63.6479C63.618 63.8059 63.5815 64.0733 63.2769 64.2556L61.9976 64.9908C61.8387 65.0753 61.662 65.121 61.482 65.1242C61.3019 65.1273 61.1237 65.0879 60.9619 65.0091Z" fill="#EFE1EE"/>
<path d="M23.5822 47.0765L22.4735 46.4385C22.2115 46.2865 22.242 46.0192 22.5466 45.8308L23.8259 45.0894C23.9833 45.0025 24.1589 44.9534 24.3386 44.946C24.5184 44.9387 24.6974 44.9732 24.8615 45.0469L25.9763 45.6546C26.2382 45.8065 26.2078 46.0738 25.9032 46.2622L24.6178 47.0097C24.4623 47.1005 24.2877 47.1538 24.1079 47.1654C23.9281 47.177 23.7481 47.1465 23.5822 47.0765Z" fill="#EFE1EE"/>
<path d="M26.2139 48.5897L25.1052 47.9517C24.8432 47.7997 24.8737 47.5324 25.1783 47.344L26.4576 46.6026C26.615 46.5157 26.7906 46.4666 26.9704 46.4593C27.1501 46.4519 27.3291 46.4864 27.4932 46.5601L28.608 47.1981C28.8699 47.3501 28.8395 47.6174 28.5288 47.8058L27.2495 48.5472C27.0921 48.6341 26.9165 48.6832 26.7367 48.6906C26.557 48.6979 26.3779 48.6634 26.2139 48.5897Z" fill="#EFE1EE"/>
<path d="M28.8759 50.1151L27.7611 49.477C27.4991 49.3251 27.5296 49.0577 27.8403 48.8694L29.1196 48.128C29.277 48.0411 29.4526 47.992 29.6324 47.9846C29.8121 47.9772 29.9912 48.0118 30.1552 48.0854L31.2639 48.6931C31.532 48.845 31.4954 49.1124 31.1908 49.3008L29.9115 50.0422C29.7565 50.1339 29.5822 50.1883 29.4024 50.201C29.2226 50.2136 29.0423 50.1842 28.8759 50.1151Z" fill="#EFE1EE"/>
<path d="M31.5073 51.628L30.3925 50.99C30.1306 50.838 30.161 50.5707 30.4656 50.3823L31.751 49.6409C31.9085 49.554 32.084 49.5049 32.2638 49.4976C32.4435 49.4902 32.6226 49.5247 32.7866 49.5984L33.8953 50.2364C34.1573 50.3884 34.1268 50.6557 33.8222 50.8441L32.543 51.5855C32.3855 51.6724 32.21 51.7215 32.0302 51.7289C31.8504 51.7362 31.6714 51.7017 31.5073 51.628Z" fill="#EFE1EE"/>
<path d="M34.1331 53.1411L33.0244 52.5334C32.7624 52.3815 32.7929 52.1141 33.0975 51.9258L34.3768 51.1844C34.5342 51.0975 34.7098 51.0484 34.8895 51.041C35.0693 51.0336 35.2483 51.0682 35.4124 51.1418L36.5272 51.7799C36.7891 51.9318 36.7587 52.1992 36.4541 52.3876L35.1687 53.0864C35.0127 53.1766 34.8375 53.2286 34.6575 53.2381C34.4775 53.2476 34.2977 53.2144 34.1331 53.1411Z" fill="#EFE1EE"/>
<path d="M36.7958 54.6664L35.6871 54.0283C35.419 53.8764 35.4495 53.609 35.7602 53.4206L37.0395 52.6792C37.1969 52.5923 37.3725 52.5433 37.5523 52.5359C37.732 52.5285 37.9111 52.563 38.0751 52.6367L39.1838 53.2748C39.4519 53.4267 39.4153 53.6941 39.1107 53.8824L37.8314 54.6238C37.674 54.7107 37.4984 54.7598 37.3187 54.7672C37.1389 54.7746 36.9599 54.74 36.7958 54.6664Z" fill="#EFE1EE"/>
<path d="M39.4277 56.1797L38.3128 55.572C38.0509 55.4201 38.0814 55.1527 38.392 54.9643L39.6714 54.223C39.8288 54.1361 40.0043 54.087 40.1841 54.0796C40.3639 54.0722 40.5429 54.1067 40.7069 54.1804L41.8157 54.8185C42.0837 54.9704 42.0472 55.2378 41.7426 55.4262L40.4633 56.1675C40.3035 56.2496 40.1267 56.2935 39.9469 56.2956C39.7672 56.2977 39.5894 56.258 39.4277 56.1797Z" fill="#EFE1EE"/>
<path d="M42.0828 57.7049L40.9741 57.0669C40.7061 56.9149 40.7426 56.6476 41.0472 56.4592L42.3265 55.7178C42.4839 55.6309 42.6595 55.5818 42.8393 55.5745C43.0191 55.5671 43.1981 55.6016 43.3621 55.6753L44.4709 56.3133C44.7389 56.4653 44.7023 56.7326 44.3977 56.921L43.1184 57.6624C42.961 57.7493 42.7854 57.7984 42.6057 57.8058C42.4259 57.8131 42.2469 57.7786 42.0828 57.7049Z" fill="#EFE1EE"/>
<path d="M44.7149 59.218L43.6062 58.6103C43.3381 58.4584 43.3686 58.191 43.6793 58.0027L44.9586 57.2613C45.116 57.1744 45.2916 57.1253 45.4713 57.1179C45.6511 57.1105 45.8301 57.1451 45.9942 57.2187L47.1029 57.8568C47.3709 58.0087 47.3344 58.2761 47.0298 58.4645L45.7505 59.2059C45.5907 59.288 45.4139 59.3318 45.2341 59.3339C45.0544 59.336 44.8766 59.2964 44.7149 59.218Z" fill="#EFE1EE"/>
<path d="M47.3467 60.7311L46.238 60.093C45.97 59.9411 46.0004 59.6737 46.3111 59.4853L47.5904 58.7501C47.7478 58.6632 47.9234 58.6141 48.1031 58.6067C48.2829 58.5993 48.4619 58.6338 48.626 58.7075L49.7347 59.3456C50.0028 59.4975 49.9662 59.7649 49.6616 59.9533L48.3823 60.6886C48.2249 60.7754 48.0493 60.8245 47.8696 60.8319C47.6898 60.8393 47.5108 60.8048 47.3467 60.7311Z" fill="#EFE1EE"/>
<path d="M50.0026 62.2564L48.8939 61.6487C48.6259 61.4968 48.6624 61.2294 48.967 61.041L50.2463 60.2997C50.4037 60.2128 50.5793 60.1637 50.7591 60.1563C50.9389 60.1489 51.1179 60.1834 51.2819 60.2571L52.3907 60.8952C52.6587 61.0471 52.6282 61.3145 52.3175 61.5029L51.0382 62.2442C50.8784 62.3263 50.7016 62.3702 50.5219 62.3723C50.3421 62.3744 50.1643 62.3347 50.0026 62.2564Z" fill="#EFE1EE"/>
<path d="M52.6345 63.7693L51.5257 63.1313C51.2577 62.9794 51.2942 62.712 51.5988 62.5236L52.8781 61.7822C53.0356 61.6953 53.2111 61.6462 53.3909 61.6389C53.5707 61.6315 53.7497 61.666 53.9138 61.7397L55.0225 62.3778C55.2905 62.5297 55.2539 62.7971 54.9494 62.9854L53.6701 63.7207C53.5136 63.81 53.3382 63.8609 53.1581 63.8694C52.9781 63.8778 52.7986 63.8435 52.6345 63.7693Z" fill="#EFE1EE"/>
<path d="M55.2665 65.2767L54.1578 64.6325C53.8898 64.4806 53.9202 64.2132 54.2309 64.0249L55.5102 63.2896C55.6672 63.2017 55.8425 63.1516 56.0222 63.1431C56.202 63.1347 56.3813 63.1682 56.5458 63.2409L57.6545 63.879C57.9226 64.037 57.886 64.2983 57.5814 64.4867L56.3021 65.222C56.1462 65.3122 55.971 65.3642 55.7909 65.3737C55.6109 65.3832 55.4312 65.35 55.2665 65.2767Z" fill="#EFE1EE"/>
<path d="M57.9217 66.808L56.813 66.1699C56.5449 66.018 56.5815 65.7506 56.8861 65.5622L58.1654 64.8209C58.3228 64.734 58.4984 64.6849 58.6782 64.6775C58.8579 64.6701 59.0369 64.7046 59.201 64.7783L60.3097 65.4164C60.5778 65.5683 60.5473 65.8357 60.2366 66.0241L58.9573 66.7594C58.8009 66.8486 58.6254 66.8995 58.4454 66.908C58.2653 66.9164 58.0859 66.8822 57.9217 66.808Z" fill="#EFE1EE"/>
<path d="M23.0152 50.3641L19.2992 48.2312C19.0372 48.0793 19.0677 47.8119 19.3784 47.6235L20.6577 46.8821C20.8151 46.7952 20.9907 46.7462 21.1704 46.7388C21.3502 46.7314 21.5292 46.7659 21.6933 46.8396L25.4032 48.9726C25.6712 49.1245 25.6408 49.3919 25.3301 49.5802L24.0508 50.3216C23.8934 50.4085 23.7178 50.4576 23.538 50.4649C23.3583 50.4723 23.1793 50.4378 23.0152 50.3641Z" fill="#EFE1EE"/>
<path d="M25.6839 51.9077L24.5935 51.2636C24.3254 51.1117 24.3559 50.8443 24.6666 50.6559L25.9458 49.9146C26.1033 49.8277 26.2788 49.7786 26.4586 49.7712C26.6384 49.7638 26.8174 49.7983 26.9815 49.872L28.0902 50.5101C28.3582 50.662 28.3217 50.9294 28.0171 51.1178L26.7378 51.8591C26.5785 51.95 26.3999 52.0017 26.2167 52.0102C26.0335 52.0186 25.8509 51.9835 25.6839 51.9077Z" fill="#EFE1EE"/>
<path d="M28.334 53.4145L27.2253 52.8069C26.9573 52.6489 26.9877 52.3815 27.2984 52.1992L28.5777 51.4639C28.7345 51.3751 28.9102 51.325 29.0903 51.3176C29.2705 51.3102 29.4497 51.3458 29.6133 51.4214L30.722 52.029C30.9901 52.187 30.9535 52.4544 30.6489 52.6367L29.3696 53.372C29.2127 53.4603 29.037 53.5102 28.8569 53.5176C28.6769 53.5249 28.4977 53.4896 28.334 53.4145Z" fill="#EFE1EE"/>
<path d="M30.9657 54.9095L29.851 54.3018C29.589 54.1499 29.6194 53.8825 29.9301 53.6942L31.2094 52.9589C31.3659 52.8696 31.5413 52.8187 31.7214 52.8102C31.9014 52.8018 32.0809 52.8361 32.245 52.9103L33.3538 53.5483C33.6218 53.7003 33.5852 53.9676 33.2806 54.156L32.0014 54.8974C31.8415 54.9795 31.6647 55.0233 31.485 55.0254C31.3052 55.0276 31.1274 54.9879 30.9657 54.9095Z" fill="#EFE1EE"/>
<path d="M33.6033 56.4592L32.4946 55.8212C32.2266 55.6632 32.2631 55.4019 32.5677 55.2135L33.847 54.4782C34.0038 54.3895 34.1795 54.3393 34.3596 54.3319C34.5398 54.3245 34.719 54.3601 34.8826 54.4357L35.9913 55.0433C36.2594 55.1953 36.2228 55.4626 35.9182 55.651L34.639 56.3863C34.4839 56.4781 34.3096 56.5324 34.1298 56.5451C33.95 56.5577 33.7697 56.5283 33.6033 56.4592Z" fill="#EFE1EE"/>
<path d="M36.2534 57.9479L35.1448 57.3402C34.8767 57.1883 34.9133 56.9209 35.2179 56.7325L36.4971 55.9972C36.6536 55.908 36.8291 55.857 37.0091 55.8486C37.1891 55.8401 37.3686 55.8744 37.5328 55.9486L38.6415 56.5867C38.9095 56.7386 38.873 57.006 38.5684 57.1943L37.2891 57.9357C37.1292 58.0178 36.9524 58.0617 36.7727 58.0638C36.5929 58.0659 36.4151 58.0262 36.2534 57.9479Z" fill="#EFE1EE"/>
<path d="M38.91 59.4974L37.8012 58.8594C37.5332 58.7074 37.5698 58.4401 37.8743 58.2517L39.1536 57.5103C39.3111 57.4234 39.4866 57.3743 39.6664 57.3669C39.8462 57.3596 40.0252 57.3941 40.1892 57.4678L41.298 58.0755C41.566 58.2274 41.5356 58.4947 41.2249 58.6831L39.9456 59.4184C39.7916 59.5125 39.6174 59.5688 39.4373 59.5825C39.2573 59.5962 39.0765 59.5671 38.91 59.4974Z" fill="#EFE1EE"/>
<path d="M41.5233 60.9863L40.4145 60.3786C40.1465 60.2267 40.183 59.9593 40.4876 59.7709L41.7669 59.0357C41.9239 58.9478 42.0992 58.8977 42.279 58.8892C42.4587 58.8808 42.638 58.9143 42.8025 58.987L43.9112 59.6251C44.1793 59.777 44.1488 60.0444 43.8382 60.2328L42.5589 60.9681C42.4001 61.053 42.2234 61.099 42.0433 61.1021C41.8632 61.1053 41.6849 61.0656 41.5233 60.9863Z" fill="#EFE1EE"/>
<path d="M44.1726 62.5176L43.0639 61.9099C42.7959 61.758 42.8324 61.4906 43.137 61.3022L44.4163 60.5608C44.5737 60.4739 44.7493 60.4249 44.9291 60.4175C45.1089 60.4101 45.2879 60.4446 45.4519 60.5183L46.5607 61.1564C46.8287 61.3083 46.7922 61.5757 46.4876 61.764L45.2083 62.5054C45.0484 62.5875 44.8716 62.6314 44.6919 62.6335C44.5121 62.6356 44.3343 62.5959 44.1726 62.5176Z" fill="#EFE1EE"/>
<path d="M46.8284 64.0246L45.7197 63.417C45.4577 63.259 45.4882 62.9916 45.7928 62.8093L47.072 62.074C47.229 61.9861 47.4043 61.936 47.5841 61.9275C47.7639 61.9191 47.9431 61.9526 48.1077 62.0254L49.2225 62.6634C49.4844 62.8214 49.454 63.0888 49.1433 63.2711L47.864 64.0064C47.7052 64.0913 47.5285 64.1373 47.3484 64.1405C47.1683 64.1436 46.99 64.1039 46.8284 64.0246Z" fill="#EFE1EE"/>
<path d="M49.4423 65.5559L48.3336 64.9483C48.0656 64.7963 48.1021 64.529 48.4067 64.3406L49.686 63.5992C49.8434 63.5123 50.019 63.4633 50.1987 63.4559C50.3785 63.4485 50.5575 63.483 50.7216 63.5567L51.8303 64.1948C52.0984 64.3467 52.0679 64.6141 51.7572 64.8024L50.4779 65.5438C50.3181 65.6259 50.1413 65.6698 49.9616 65.6719C49.7818 65.674 49.604 65.6343 49.4423 65.5559Z" fill="#EFE1EE"/>
<path d="M52.0925 67.063L50.9839 66.4553C50.7158 66.3034 50.7524 66.036 51.057 65.8476L52.3362 65.1063C52.4937 65.0194 52.6692 64.9703 52.849 64.9629C53.0288 64.9555 53.2078 64.99 53.3719 65.0637L54.4806 65.7018C54.7486 65.8537 54.7182 66.1211 54.4075 66.3095L53.1282 67.0508C52.9684 67.1329 52.7916 67.1768 52.6118 67.1789C52.432 67.181 52.2543 67.1413 52.0925 67.063Z" fill="#EFE1EE"/>
<path d="M51.6775 70.3687L50.5688 69.7307C50.3008 69.5787 50.3373 69.3114 50.6419 69.123L54.9915 66.6133C55.148 66.524 55.3234 66.4731 55.5035 66.4646C55.6835 66.4562 55.863 66.4905 56.0271 66.5646L57.142 67.2027C57.4039 67.3546 57.3735 67.622 57.0689 67.8104L52.7132 70.3262C52.5557 70.4131 52.3802 70.4622 52.2004 70.4695C52.0206 70.4769 51.8416 70.4424 51.6775 70.3687Z" fill="#EFE1EE"/>
<path d="M17.338 50.6558L16.2293 50.0177C15.9674 49.8597 15.9978 49.5984 16.3024 49.4101L17.5817 48.6747C17.7387 48.5865 17.9144 48.5366 18.0944 48.5292C18.2744 48.5218 18.4537 48.5571 18.6173 48.6322L19.7321 49.2399C19.9941 49.3918 19.9636 49.6592 19.6529 49.8476L18.3737 50.595C18.2177 50.6848 18.0428 50.7371 17.863 50.7476C17.6833 50.7582 17.5035 50.7267 17.338 50.6558Z" fill="#EFE1EE"/>
<path d="M19.9698 52.1507L18.8611 51.543C18.593 51.3911 18.6296 51.1237 18.9342 50.9353L20.2135 50.2001C20.3699 50.1108 20.5454 50.0599 20.7254 50.0514C20.9054 50.043 21.0849 50.0773 21.2491 50.1515L22.3578 50.7895C22.6258 50.9414 22.5954 51.2088 22.2847 51.3972L21.0054 52.1386C20.8456 52.2207 20.6688 52.2645 20.489 52.2666C20.3093 52.2687 20.1315 52.229 19.9698 52.1507Z" fill="#EFE1EE"/>
<path d="M22.6382 53.694L21.5234 53.0559C21.2614 52.904 21.2919 52.6366 21.5965 52.4482L22.8819 51.7129C23.0393 51.626 23.2149 51.577 23.3946 51.5696C23.5744 51.5622 23.7534 51.5967 23.9175 51.6704L25.0262 52.2781C25.2881 52.43 25.2577 52.6974 24.9531 52.8858L23.6738 53.621C23.5188 53.7128 23.3445 53.7672 23.1647 53.7798C22.9849 53.7925 22.8046 53.7631 22.6382 53.694Z" fill="#EFE1EE"/>
<path d="M25.2571 55.1889L24.1484 54.5813C23.8864 54.4293 23.9169 54.162 24.2215 53.9736L25.5008 53.2383C25.6577 53.1504 25.833 53.1003 26.0128 53.0919C26.1926 53.0834 26.3719 53.1169 26.5364 53.1897L27.6512 53.8277C27.9131 53.9797 27.8827 54.247 27.5781 54.4354L26.2927 55.1464C26.1353 55.2333 25.9597 55.2824 25.78 55.2898C25.6002 55.2972 25.4212 55.2626 25.2571 55.1889Z" fill="#EFE1EE"/>
<path d="M35.8388 61.2718L26.7802 56.0639C26.5183 55.912 26.5487 55.6447 26.8533 55.4563L28.1326 54.7149C28.2901 54.628 28.4656 54.5789 28.6454 54.5715C28.8252 54.5642 29.0042 54.5987 29.1682 54.6724L38.2268 59.8741C38.4949 60.0321 38.4583 60.2995 38.1537 60.4818L36.8744 61.2171C36.718 61.3059 36.5429 61.3571 36.3631 61.3666C36.1833 61.3761 36.0038 61.3436 35.8388 61.2718Z" fill="#EFE1EE"/>
<path d="M38.4765 62.8094L37.3678 62.1713C37.0997 62.0194 37.1302 61.752 37.4409 61.5637L38.7202 60.8284C38.8766 60.7391 39.0521 60.6882 39.2321 60.6797C39.4121 60.6713 39.5916 60.7056 39.7558 60.7798L40.8645 61.4178C41.1325 61.5697 41.096 61.8371 40.7914 62.0255L39.5121 62.7669C39.3547 62.8537 39.1791 62.9028 38.9993 62.9102C38.8196 62.9176 38.6405 62.8831 38.4765 62.8094Z" fill="#EFE1EE"/>
<path d="M41.1025 64.292L39.9877 63.654C39.7257 63.5021 39.7562 63.2347 40.0669 63.0463L41.3462 62.3049C41.5036 62.218 41.6791 62.1689 41.8589 62.1616C42.0387 62.1542 42.2177 62.1887 42.3818 62.2624L43.4905 62.9004C43.7585 63.0524 43.722 63.3197 43.4174 63.5081L42.1381 64.2495C41.9807 64.3364 41.8051 64.3855 41.6253 64.3929C41.4456 64.4002 41.2665 64.3657 41.1025 64.292Z" fill="#EFE1EE"/>
<path d="M43.7585 65.8477L42.6498 65.2096C42.3817 65.0577 42.4183 64.7903 42.7229 64.602L44.0022 63.8667C44.1586 63.7774 44.3341 63.7265 44.5141 63.718C44.6942 63.7096 44.8736 63.7439 45.0378 63.8181L46.1465 64.4561C46.4146 64.608 46.378 64.8754 46.0734 65.0638L44.7941 65.7991C44.6372 65.8869 44.4618 65.9371 44.2821 65.9455C44.1023 65.954 43.923 65.9205 43.7585 65.8477Z" fill="#EFE1EE"/>
<path d="M46.3962 67.3304L45.2874 66.6923C45.0194 66.5404 45.0498 66.273 45.3605 66.0846L46.6398 65.3433C46.7973 65.2564 46.9728 65.2073 47.1526 65.1999C47.3324 65.1925 47.5114 65.227 47.6754 65.3007L48.7842 65.9388C49.0522 66.0907 49.0156 66.3581 48.7111 66.5465L47.4318 67.2878C47.2744 67.3747 47.0988 67.4238 46.919 67.4312C46.7392 67.4386 46.5602 67.4041 46.3962 67.3304Z" fill="#EFE1EE"/>
<path d="M49.0224 68.8434L47.9137 68.2053C47.6456 68.0534 47.6761 67.786 47.9868 67.5976L49.2661 66.8563C49.4235 66.7694 49.599 66.7203 49.7788 66.7129C49.9586 66.7055 50.1376 66.74 50.3017 66.8137L51.4104 67.4518C51.6784 67.6037 51.6419 67.8711 51.3373 68.0595L50.058 68.8008C49.9006 68.8877 49.725 68.9368 49.5452 68.9442C49.3655 68.9516 49.1864 68.9171 49.0224 68.8434Z" fill="#EFE1EE"/>
<path d="M45.1048 26.9563L48.437 22.2711C47.6156 20.9785 46.5223 19.8795 45.2327 19.0504C41.9797 17.1119 39.2931 19.0504 39.22 23.4378C39.1469 27.8253 41.7299 32.9115 44.9768 34.8561C48.2238 36.8007 50.8494 34.8561 50.9834 30.6023L45.1048 26.9563Z" fill="white"/>
<path d="M50.3557 21.8032L47.0479 26.5006L52.9387 30.1466C52.9387 30.092 52.9387 30.0433 52.9387 29.9886C52.8921 27.068 51.9947 24.2239 50.3557 21.8032Z" fill="white"/>
<path d="M58.2812 41.571V25.9719L60.8459 27.5762V43.1388L58.2812 41.571Z" fill="white"/>
<path d="M61.6504 43.631V32.7961L64.2151 34.4004V45.1988L61.6504 43.631Z" fill="white"/>
<path d="M54.8153 39.4198V33.258L57.38 34.8623V40.9877L54.8153 39.4198Z" fill="white"/>
<path d="M47.2307 77.5819C47.2343 77.3612 47.2916 77.1446 47.3977 76.9509C47.5038 76.7571 47.6556 76.5921 47.8399 76.4699L51.8301 74.2215C51.8875 74.1822 51.954 74.1583 52.0233 74.1519C52.0926 74.1455 52.1624 74.1569 52.2261 74.185H52.2748L54.2607 75.3213L49.5274 79.2166L47.5171 78.062C47.4723 78.0483 47.4308 78.0255 47.3952 77.9951C47.3409 77.9411 47.2983 77.8766 47.27 77.8055C47.2417 77.7345 47.2284 77.6583 47.2307 77.5819Z" fill="url(#paint11_linear_47_14271)"/>
<path d="M49.8925 79.168L53.8766 76.9257C54.0621 76.8033 54.2147 76.6374 54.3209 76.4424C54.4271 76.2475 54.4838 76.0295 54.4858 75.8076C54.4858 75.3883 54.1934 75.1999 53.8766 75.3883L49.8925 77.6306C49.7073 77.7534 49.555 77.9194 49.4488 78.1143C49.3427 78.3092 49.2858 78.527 49.2833 78.7487C49.2772 79.1741 49.5574 79.3625 49.8925 79.168Z" fill="#1800C2"/>
<defs>
<linearGradient id="paint0_linear_47_14271" x1="56.9291" y1="36.8736" x2="54.6539" y2="32.0443" gradientUnits="userSpaceOnUse">
<stop stop-color="#3D00E7"/>
<stop offset="1" stop-color="#6031FF"/>
</linearGradient>
<linearGradient id="paint1_linear_47_14271" x1="57.8913" y1="42.8409" x2="26.9305" y2="-23.1087" gradientUnits="userSpaceOnUse">
<stop stop-color="#1800C2"/>
<stop offset="1" stop-color="#240ED6"/>
</linearGradient>
<linearGradient id="paint2_linear_47_14271" x1="202.827" y1="263.584" x2="-49.392" y2="54.5498" gradientUnits="userSpaceOnUse">
<stop stop-color="#6318FF"/>
<stop offset="1" stop-color="#FFF6E2"/>
</linearGradient>
<linearGradient id="paint3_linear_47_14271" x1="57.6693" y1="18.875" x2="52.1553" y2="14.2842" gradientUnits="userSpaceOnUse">
<stop stop-color="#6318FF"/>
<stop offset="1" stop-color="#FFF6E2"/>
</linearGradient>
<linearGradient id="paint4_linear_47_14271" x1="43.2164" y1="60.5669" x2="39.9695" y2="60.5669" gradientUnits="userSpaceOnUse">
<stop stop-color="#1800C2"/>
<stop offset="1" stop-color="#240ED6"/>
</linearGradient>
<linearGradient id="paint5_linear_47_14271" x1="39.8146" y1="38.8931" x2="39.1279" y2="81.0472" gradientUnits="userSpaceOnUse">
<stop stop-color="#3D00E7"/>
<stop offset="1" stop-color="#6031FF"/>
</linearGradient>
<linearGradient id="paint6_linear_47_14271" x1="19.8801" y1="119.389" x2="26.7243" y2="-67.9246" gradientUnits="userSpaceOnUse">
<stop stop-color="#6318FF"/>
<stop offset="1" stop-color="#FFF6E2"/>
</linearGradient>
<linearGradient id="paint7_linear_47_14271" x1="19.2803" y1="87.9674" x2="21.7876" y2="19.3637" gradientUnits="userSpaceOnUse">
<stop stop-color="#6318FF"/>
<stop offset="1" stop-color="#FFF6E2"/>
</linearGradient>
<linearGradient id="paint8_linear_47_14271" x1="30.0518" y1="52.1689" x2="31.6479" y2="52.1079" gradientUnits="userSpaceOnUse">
<stop stop-color="#1800C2"/>
<stop offset="1" stop-color="#240ED6"/>
</linearGradient>
<linearGradient id="paint9_linear_47_14271" x1="25.0265" y1="62.1287" x2="26.1352" y2="62.1287" gradientUnits="userSpaceOnUse">
<stop stop-color="#1800C2"/>
<stop offset="1" stop-color="#240ED6"/>
</linearGradient>
<linearGradient id="paint10_linear_47_14271" x1="10.5749" y1="98.6183" x2="12.2744" y2="56.7331" gradientUnits="userSpaceOnUse">
<stop stop-color="#6318FF"/>
<stop offset="1" stop-color="#FFF6E2"/>
</linearGradient>
<linearGradient id="paint11_linear_47_14271" x1="49.0461" y1="78.7912" x2="50.0175" y2="77.3305" gradientUnits="userSpaceOnUse">
<stop stop-color="#3D00E7"/>
<stop offset="1" stop-color="#6031FF"/>
</linearGradient>
</defs>
</svg>
