<svg width="55" height="95" viewBox="0 0 55 95" fill="none" xmlns="http://www.w3.org/2000/svg">
<path d="M36.888 79.0707V11.1636L0.0509051 10.4278V78.0185C-0.00802676 78.2363 0.0140631 78.468 0.113034 78.6709C0.212006 78.8737 0.381206 79.034 0.589404 79.1222L17.304 88.9819C17.838 89.2318 18.4234 89.3527 19.0129 89.3348C19.6024 89.3169 20.1794 89.1607 20.6971 88.8789L36.0545 80.248C36.652 79.9316 36.9323 79.4827 36.888 79.0707Z" fill="url(#paint0_linear_47_14425)"/>
<path d="M17.2967 20.9055L0.574718 11.0458C-0.288307 10.5307 -0.162921 9.65512 0.840253 9.08856L16.1977 0.457612C16.7154 0.175808 17.2924 0.0196306 17.8819 0.00173358C18.4714 -0.0161634 19.0569 0.104724 19.5908 0.354601L36.3054 10.2143C37.1684 10.722 37.0431 11.5976 36.0399 12.1642L20.6825 20.7952C20.1663 21.0769 19.5909 21.2337 19.0028 21.2529C18.4147 21.2721 17.8303 21.1531 17.2967 20.9055Z" fill="url(#paint1_linear_47_14425)"/>
<path d="M37.5303 94.3754L30.0508 90.1371V85.7371L37.5377 89.9679L37.5303 94.3754Z" fill="#3B3BC4"/>
<path d="M44.7216 90.2401L37.5371 86.2373L44.7216 85.8179V90.2401Z" fill="#3B3BC4"/>
<path d="M39.0347 75.0458L39.0273 83.6768L46.979 80.9175L51.9211 72.9635L47.3699 69.233L39.0347 75.0458Z" fill="url(#paint2_linear_47_14425)"/>
<path d="M39.042 62.2134V69.6745L48.5131 65.4436L50.04 58.0635L45.4741 56.9672L39.042 62.2134Z" fill="url(#paint3_linear_47_14425)"/>
<path d="M26.6572 55.422L30.0724 53.4647L37.5594 57.7029L34.1442 59.6602L26.6572 55.422Z" fill="#DFD2FF"/>
<path d="M44.744 53.5898L37.2571 49.3516L33.7607 51.3456L41.2477 55.5764L44.744 53.5898Z" fill="#DFD2FF"/>
<path d="M50.667 51.8091L43.5194 47.7181L41.2549 50.1168L48.9336 53.2954L50.667 51.8091Z" fill="#DFD2FF"/>
<path d="M30.0724 49.0647L37.5593 53.2956V57.703L30.0724 53.4648V49.0647Z" fill="#554FC6"/>
<path d="M37.257 44.9294L44.7439 49.1676V53.5898L37.257 49.3516V44.9294Z" fill="#554FC6"/>
<path d="M40.9525 42.8103L48.4394 47.0412L44.7439 49.1677L37.257 44.9294L40.9525 42.8103Z" fill="#DFD2FF"/>
<path d="M33.7679 46.9381L41.2548 51.1763L37.5593 53.2954L30.0724 49.0646L33.7679 46.9381Z" fill="#DFD2FF"/>
<path d="M44.7217 90.2399V85.8251C44.0283 86.2372 43.2464 86.6934 42.3908 87.1864L41.2327 87.8559V92.2707L37.5446 94.3972V89.9824L34.1367 91.947V59.6747L37.5446 57.7175V53.3027L41.2327 51.1836V55.5984L43.8365 54.1268C44.1463 53.9502 44.4414 53.781 44.729 53.6338V49.219L48.4172 47.0925V51.89C49.1374 51.664 49.9098 51.664 50.6301 51.89C51.4347 52.1783 52.1027 52.7555 52.5037 53.5087C53.0418 54.54 53.2964 55.6952 53.2413 56.8566C53.2183 58.4639 52.906 60.0539 52.3193 61.551C51.7386 63.1052 50.8953 64.5486 49.8261 65.8187C50.4277 65.6464 51.0657 65.6453 51.6679 65.8157C52.2701 65.986 52.8125 66.3209 53.2339 66.7826C54.0207 67.7097 54.4166 69.1028 54.4215 70.9619C54.4121 72.5643 54.1635 74.1564 53.6839 75.6858C53.2026 77.2968 52.4922 78.8306 51.5743 80.2404C50.7245 81.5287 49.6532 82.6571 48.4098 83.5736V88.2018L44.7217 90.2399ZM39.042 75.0456V83.6766L43.5783 81.0645C44.7463 80.436 45.8678 79.7254 46.9345 78.938C47.692 78.3076 48.3014 77.5189 48.7196 76.6276C49.1844 75.6458 49.419 74.5714 49.4056 73.4857C49.4576 72.7305 49.2747 71.9776 48.8819 71.3298C48.707 71.098 48.4708 70.9194 48.1998 70.8141C47.9287 70.7088 47.6336 70.681 47.3476 70.7338C46.6837 70.8074 45.2307 71.4696 43.003 72.772L39.042 75.0456ZM39.042 62.2133V69.6743L42.2506 67.8201C44.1586 66.7213 45.3462 66.0026 45.8134 65.6642C46.6366 65.0738 47.3109 64.3004 47.7828 63.4053C48.2683 62.4999 48.5217 61.4888 48.5205 60.462C48.5612 60.0913 48.5275 59.7162 48.4211 59.3586C48.3147 59.001 48.1378 58.6683 47.9008 58.3797C47.4878 57.9971 46.8755 57.975 46.0568 58.3135C45.565 58.5195 44.1684 59.2848 41.867 60.6092L39.042 62.2133Z" fill="#B590FF"/>
<path d="M26.6572 55.4219L34.1441 59.6601L34.122 91.9323L26.6425 87.6941L26.6572 55.4219Z" fill="#554FC6"/>
<path d="M4.8308 24.9376L2.35233 23.5101C2.26133 23.4439 2.18677 23.3577 2.13434 23.2582C2.08192 23.1587 2.05305 23.0486 2.04993 22.9362V18.9408C2.04993 18.7201 2.18268 18.617 2.35233 18.7127L4.82341 20.1402C4.91442 20.2064 4.98898 20.2926 5.04141 20.3921C5.09383 20.4916 5.1227 20.6017 5.12582 20.7141V24.7095C5.1332 24.9302 5.00045 25.0332 4.8308 24.9376Z" fill="#F5E9E6"/>
<path d="M9.24962 27.491L6.7712 26.0635C6.6802 25.9973 6.60559 25.9111 6.55316 25.8116C6.50074 25.7121 6.47187 25.602 6.46875 25.4896V21.4648C6.46875 21.244 6.60155 21.141 6.7712 21.2367L9.24224 22.6641C9.33324 22.7304 9.40781 22.8166 9.46023 22.9161C9.51266 23.0156 9.54153 23.1257 9.54465 23.2381V27.2335C9.55202 27.4836 9.42665 27.5867 9.24962 27.491Z" fill="#F5E9E6"/>
<path d="M13.6676 30.0442L11.1892 28.6168C11.0982 28.5505 11.0236 28.4643 10.9712 28.3648C10.9188 28.2653 10.8898 28.1552 10.8867 28.0428V24.0474C10.8867 23.8267 11.0195 23.7237 11.1892 23.8267L13.6602 25.2468C13.7522 25.3138 13.8274 25.4012 13.8798 25.502C13.9323 25.6029 13.9607 25.7145 13.9627 25.8281V29.8161C13.9627 30.0442 13.852 30.1399 13.6676 30.0442Z" fill="#F5E9E6"/>
<path d="M4.8308 31.2361L2.35233 29.8087C2.26035 29.7417 2.18519 29.6543 2.13272 29.5535C2.08025 29.4526 2.05192 29.341 2.04993 29.2274V25.2394C2.04993 25.0186 2.18268 24.9156 2.35233 25.0113L4.82341 26.4387C4.91442 26.505 4.98898 26.5912 5.04141 26.6906C5.09383 26.7901 5.1227 26.9003 5.12582 27.0126V31.0301C5.1332 31.2288 5.00045 31.3318 4.8308 31.2361Z" fill="#F5E9E6"/>
<path d="M9.24911 33.7894L6.77069 32.3619C6.67808 32.2927 6.6031 32.2026 6.55184 32.0991C6.50059 31.9955 6.47447 31.8814 6.47562 31.7659V27.7926C6.47562 27.5719 6.60838 27.4689 6.77803 27.5645L9.24911 28.992C9.34011 29.0582 9.41468 29.1444 9.4671 29.2439C9.51953 29.3434 9.5484 29.4536 9.55152 29.5659V33.5613C9.55152 33.782 9.42614 33.885 9.24911 33.7894Z" fill="#F5E9E6"/>
<path d="M13.6676 36.3426L11.1892 34.9152C11.0982 34.8489 11.0236 34.7627 10.9712 34.6632C10.9188 34.5637 10.8898 34.4536 10.8867 34.3412V30.3458C10.8867 30.1251 11.0195 30.0221 11.1892 30.1177L13.6602 31.5452C13.7512 31.6115 13.8258 31.6976 13.8782 31.7971C13.9306 31.8966 13.9595 32.0068 13.9627 32.1191V36.1145C13.9627 36.3353 13.852 36.4383 13.6676 36.3426Z" fill="#F5E9E6"/>
<path d="M9.24962 40.0805L6.7712 38.6604C6.67922 38.5934 6.60401 38.5061 6.55154 38.4052C6.49907 38.3044 6.47075 38.1928 6.46875 38.0791V34.0911C6.46875 33.863 6.60155 33.7674 6.7712 33.863L9.24224 35.2905C9.33324 35.3567 9.40781 35.4429 9.46023 35.5424C9.51266 35.6419 9.54153 35.752 9.54465 35.8644V39.8598C9.55202 40.0805 9.42665 40.1835 9.24962 40.0805Z" fill="#F5E9E6"/>
<path d="M13.6676 48.9322L11.1892 47.5048C11.0982 47.4385 11.0236 47.3523 10.9712 47.2529C10.9188 47.1534 10.8898 47.0432 10.8867 46.9309V42.9355C10.8867 42.7147 11.0195 42.6117 11.1892 42.7147L13.6602 44.1348C13.7522 44.2018 13.8274 44.2892 13.8798 44.39C13.9323 44.4909 13.9607 44.6025 13.9627 44.7161V48.6894C13.9627 48.9322 13.852 49.0279 13.6676 48.9322Z" fill="#F5E9E6"/>
<path d="M4.8308 56.4154L2.35233 54.9879C2.26133 54.9216 2.18677 54.8354 2.13434 54.736C2.08192 54.6365 2.05305 54.5263 2.04993 54.414V50.4186C2.04993 50.1978 2.18268 50.0948 2.35233 50.1905L4.82341 51.6179C4.91539 51.685 4.99056 51.7723 5.04303 51.8732C5.0955 51.974 5.12383 52.0856 5.12582 52.1992V56.1873C5.1332 56.4154 5.00045 56.511 4.8308 56.4154Z" fill="#F5E9E6"/>
<defs>
<linearGradient id="paint0_linear_47_14425" x1="21.0512" y1="49.9035" x2="15.9542" y2="49.9035" gradientUnits="userSpaceOnUse">
<stop stop-color="#867CE2"/>
<stop offset="1" stop-color="#B590FF"/>
</linearGradient>
<linearGradient id="paint1_linear_47_14425" x1="92.2545" y1="64.1044" x2="-11.8379" y2="-11.6931" gradientUnits="userSpaceOnUse">
<stop stop-color="#6318FF"/>
<stop offset="1" stop-color="#FFF6E2"/>
</linearGradient>
<linearGradient id="paint2_linear_47_14425" x1="42.627" y1="78.3201" x2="46.4542" y2="74.8819" gradientUnits="userSpaceOnUse">
<stop stop-color="#796DE8"/>
<stop offset="1" stop-color="#554FC6"/>
</linearGradient>
<linearGradient id="paint3_linear_47_14425" x1="41.9556" y1="65.4583" x2="45.7166" y2="62.0717" gradientUnits="userSpaceOnUse">
<stop stop-color="#796DE8"/>
<stop offset="1" stop-color="#554FC6"/>
</linearGradient>
</defs>
</svg>
