<svg width="62" height="95" viewBox="0 0 62 95" fill="none" xmlns="http://www.w3.org/2000/svg">
<g opacity="0.9">
<g style="mix-blend-mode:multiply">
<path d="M33.8022 93.7694L55.2567 81.3287C58.2078 79.6273 57.8143 76.6671 54.4205 74.7198L36.281 64.2854C32.8774 62.3184 27.7425 62.1316 24.8111 63.8329L3.35656 76.2639C0.405449 77.9653 0.798908 80.9255 4.19268 82.8826L22.3321 93.3072C25.7259 95.2643 30.8609 95.4708 33.8022 93.7694Z" fill="#8800BA"/>
</g>
</g>
<path d="M0.764866 73.3779V17.1086L57.1502 16.0032V71.7942C57.2453 72.1247 57.2183 72.4782 57.074 72.7905C56.9298 73.1027 56.6779 73.3529 56.3643 73.4955L30.7731 88.588C29.9541 88.9698 29.0566 89.1545 28.1529 89.1273C27.2492 89.1 26.3645 88.8616 25.57 88.4311L2.05387 75.2125C1.12642 74.6951 0.69413 74.013 0.764866 73.3779Z" fill="url(#paint0_linear_47_14453)"/>
<path d="M30.7653 32.0126L56.3643 16.9123C57.6847 16.1283 57.5039 14.7877 55.9556 13.9174L32.4394 0.698769C31.6449 0.268307 30.7603 0.0298625 29.8566 0.00262814C28.9529 -0.0246063 28.0554 0.160144 27.2363 0.541978L1.64516 15.6422C0.316879 16.4263 0.497658 17.7591 2.04602 18.6294L25.5622 31.848C26.3566 32.2779 27.2408 32.5167 28.1442 32.5452C29.0475 32.5738 29.9451 32.3914 30.7653 32.0126Z" fill="url(#paint1_linear_47_14453)"/>
<path d="M29.9567 25.6388L45.6289 16.3873C46.4149 15.9091 46.3363 15.0937 45.3853 14.5605L30.9784 6.43807C30.4914 6.1739 29.9491 6.02708 29.395 6.00938C28.8409 5.99169 28.2904 6.10359 27.7874 6.33615L12.1073 15.5876C11.3214 16.0659 11.4078 16.8891 12.3588 17.4222L26.7657 25.5212C27.2515 25.7878 27.793 25.9373 28.3471 25.9578C28.9013 25.9782 29.4525 25.8689 29.9567 25.6388Z" fill="url(#paint2_linear_47_14453)"/>
<path d="M35.1912 67.7405C35.1889 67.2031 35.3153 66.673 35.56 66.1943C35.8048 65.7156 36.1607 65.3022 36.598 64.9885L55.6421 53.7692C55.7786 53.6717 55.9387 53.6123 56.1058 53.5971C56.273 53.582 56.4412 53.6116 56.5931 53.6829L56.7031 53.7457L61.4189 56.5603L40.6458 71.7938L35.8592 68.94C35.7496 68.9057 35.6481 68.8497 35.5606 68.7754C35.4317 68.637 35.3324 68.4739 35.2688 68.2959C35.2053 68.118 35.1789 67.929 35.1912 67.7405Z" fill="url(#paint3_linear_47_14453)"/>
<path d="M41.5256 71.6606L60.5696 60.4412C61.007 60.1276 61.3629 59.7142 61.6076 59.2355C61.8524 58.7568 61.9789 58.2267 61.9765 57.6893C61.9765 56.6387 61.2849 56.1762 60.4832 56.6466L41.4313 67.8659C40.9939 68.1796 40.638 68.593 40.3933 69.0717C40.1486 69.5504 40.0221 70.0805 40.0244 70.6178C40.0559 71.6684 40.7239 72.131 41.5256 71.6606Z" fill="url(#paint4_linear_47_14453)"/>
<path d="M35.2146 59.3672C35.2142 58.8302 35.3415 58.3008 35.5861 57.8224C35.8306 57.344 36.1855 56.9303 36.6215 56.6153L55.6655 45.3959C55.8022 45.2994 55.9618 45.24 56.1286 45.2235C56.2953 45.207 56.4634 45.234 56.6165 45.3018C56.656 45.3207 56.693 45.3444 56.7266 45.3724L61.4424 48.1792L40.6692 63.4206L35.9298 60.5354C35.8208 60.5011 35.7213 60.4421 35.639 60.3629C35.5054 60.2335 35.399 60.0787 35.3261 59.9078C35.2533 59.7368 35.2153 59.553 35.2146 59.3672Z" fill="url(#paint5_linear_47_14453)"/>
<path d="M41.5491 63.2875L60.5931 52.0681C61.0305 51.7545 61.3864 51.3411 61.6311 50.8624C61.8758 50.3837 62.0023 49.8536 62 49.3162C62 48.2656 61.3083 47.7952 60.5067 48.2656L41.4312 59.485C40.9936 59.8003 40.6378 60.2152 40.3931 60.6951C40.1484 61.1751 40.022 61.7063 40.0243 62.2447C40.0872 63.2875 40.7553 63.7579 41.5491 63.2875Z" fill="url(#paint6_linear_47_14453)"/>
<path d="M35.1437 51.0174C35.1433 50.4793 35.2706 49.9488 35.5151 49.4691C35.7596 48.9895 36.1144 48.5744 36.5505 48.2577L55.5789 37.0148C55.716 36.9188 55.876 36.8603 56.0428 36.8452C56.2097 36.8301 56.3776 36.8588 56.5299 36.9286C56.5694 36.9475 56.6063 36.9712 56.6399 36.9991L61.3557 39.8059L40.6455 55.0473L35.8511 52.1935C35.7421 52.1592 35.6425 52.1002 35.5603 52.021C35.4278 51.8895 35.3228 51.7331 35.2513 51.5608C35.1798 51.3886 35.1432 51.2039 35.1437 51.0174Z" fill="url(#paint7_linear_47_14453)"/>
<path d="M41.494 54.9375L60.538 43.7182C60.9788 43.4005 61.3366 42.9819 61.5815 42.4976C61.8263 42.0132 61.9509 41.4773 61.9449 40.9349C61.9449 39.8843 61.2532 39.4139 60.4594 39.8843L41.4311 51.1272C40.9937 51.4408 40.6378 51.8542 40.3931 52.3329C40.1484 52.8116 40.0219 53.3418 40.0242 53.8791C40.0321 54.9375 40.7002 55.4079 41.494 54.9375Z" fill="url(#paint8_linear_47_14453)"/>
<path d="M35.1437 42.6597C35.1433 42.1227 35.2706 41.5933 35.5152 41.1149C35.7597 40.6365 36.1146 40.2228 36.5505 39.9078L55.5789 28.6885C55.7153 28.591 55.8754 28.5316 56.0426 28.5164C56.2098 28.5012 56.378 28.5309 56.5299 28.6022L56.6399 28.6649L61.3557 31.4796L40.6455 46.7131L35.8511 43.8593C35.7425 43.8281 35.6428 43.7717 35.5603 43.6946C35.4244 43.5591 35.3174 43.3976 35.2458 43.2197C35.1742 43.0419 35.1395 42.8514 35.1437 42.6597Z" fill="url(#paint9_linear_47_14453)"/>
<path d="M41.4942 46.5798L60.5382 35.3605C60.9756 35.0468 61.3315 34.6334 61.5762 34.1547C61.8209 33.676 61.9474 33.1459 61.945 32.6085C61.945 31.5579 61.2534 31.0954 60.4596 31.5658L41.4313 42.7851C40.9939 43.0988 40.638 43.5122 40.3933 43.9909C40.1485 44.4696 40.0221 44.9997 40.0244 45.5371C40.0323 46.5876 40.7003 47.0581 41.4942 46.5798Z" fill="url(#paint10_linear_47_14453)"/>
<path d="M45.628 16.4184L43.0186 17.9865L30.9775 11.2125C30.4899 10.9496 29.9473 10.8041 29.3932 10.7878C28.8391 10.7715 28.2889 10.8847 27.7865 11.1184L14.708 18.8018L12.3501 17.469C11.3991 16.9359 11.289 16.1205 12.0986 15.6422L27.7786 6.39078C28.281 6.15703 28.8313 6.0438 29.3854 6.06014C29.9395 6.07648 30.482 6.22192 30.9697 6.48486L45.3608 14.5838C46.3354 15.117 46.4454 15.9402 45.628 16.4184Z" fill="url(#paint11_linear_47_14453)"/>
<path d="M4.80519 32.4754L22.6545 42.7539V39.9863L4.80519 29.7078V32.4754Z" fill="url(#paint12_linear_47_14453)"/>
<path d="M4.805 37.7909L10.2832 40.9427V38.1829L4.805 35.0233V37.7909Z" fill="url(#paint13_linear_47_14453)"/>
<path d="M12.3583 42.1423L22.6545 48.0695V45.3019L12.3583 39.3747V42.1423Z" fill="url(#paint14_linear_47_14453)"/>
<path d="M4.8046 42.9104L17.5059 50.241V47.4734L4.8046 40.1428V42.9104Z" fill="url(#paint15_linear_47_14453)"/>
<path d="M19.5893 51.4407L22.6545 53.1891V50.4215L19.5893 48.6731V51.4407Z" fill="url(#paint16_linear_47_14453)"/>
<path d="M4.80519 48.2497L22.6545 58.5283V55.7607L4.80519 45.49V48.2497Z" fill="url(#paint17_linear_47_14453)"/>
<path d="M4.805 53.589L10.2832 56.7407V53.981L4.805 50.8214V53.589Z" fill="url(#paint18_linear_47_14453)"/>
<path d="M12.3583 57.9404L22.6545 63.8676V61.1L12.3583 55.1728V57.9404Z" fill="url(#paint19_linear_47_14453)"/>
<path d="M4.8046 58.7085L17.5059 66.0391V63.2715L4.8046 55.9409V58.7085Z" fill="url(#paint20_linear_47_14453)"/>
<path d="M19.5893 67.2388L22.6545 68.9793V66.2196L19.5893 64.4712V67.2388Z" fill="url(#paint21_linear_47_14453)"/>
<path d="M4.80519 63.7734L22.6545 74.0441V71.2843L4.80519 61.0058V63.7734Z" fill="url(#paint22_linear_47_14453)"/>
<defs>
<linearGradient id="paint0_linear_47_14453" x1="24.116" y1="52.57" x2="31.7242" y2="52.57" gradientUnits="userSpaceOnUse">
<stop stop-color="#3D00E7"/>
<stop offset="1" stop-color="#6031FF"/>
</linearGradient>
<linearGradient id="paint1_linear_47_14453" x1="-66.8991" y1="85.7652" x2="92.4967" y2="-30.3088" gradientUnits="userSpaceOnUse">
<stop stop-color="#6318FF"/>
<stop offset="1" stop-color="#FFF6E2"/>
</linearGradient>
<linearGradient id="paint2_linear_47_14453" x1="-37.9039" y1="64.3851" x2="83.1554" y2="-23.7736" gradientUnits="userSpaceOnUse">
<stop stop-color="#4500FF"/>
<stop offset="1" stop-color="#6A31FF"/>
</linearGradient>
<linearGradient id="paint3_linear_47_14453" x1="35.8357" y1="70.3826" x2="68.3906" y2="47.005" gradientUnits="userSpaceOnUse">
<stop stop-color="#A43DFF"/>
<stop offset="1" stop-color="#EAD6E2"/>
</linearGradient>
<linearGradient id="paint4_linear_47_14453" x1="-10.0689" y1="147.223" x2="87.2857" y2="133.802" gradientUnits="userSpaceOnUse">
<stop stop-color="#6318FF"/>
<stop offset="1" stop-color="#FFF6E2"/>
</linearGradient>
<linearGradient id="paint5_linear_47_14453" x1="35.867" y1="62.0093" x2="68.414" y2="38.6239" gradientUnits="userSpaceOnUse">
<stop stop-color="#A43DFF"/>
<stop offset="1" stop-color="#EAD6E2"/>
</linearGradient>
<linearGradient id="paint6_linear_47_14453" x1="-10.735" y1="139.828" x2="86.621" y2="126.414" gradientUnits="userSpaceOnUse">
<stop stop-color="#6318FF"/>
<stop offset="1" stop-color="#FFF6E2"/>
</linearGradient>
<linearGradient id="paint7_linear_47_14453" x1="35.8118" y1="53.6518" x2="68.3588" y2="30.2742" gradientUnits="userSpaceOnUse">
<stop stop-color="#A43DFF"/>
<stop offset="1" stop-color="#EAD6E2"/>
</linearGradient>
<linearGradient id="paint8_linear_47_14453" x1="-10.0446" y1="130.565" x2="87.3113" y2="117.151" gradientUnits="userSpaceOnUse">
<stop stop-color="#6318FF"/>
<stop offset="1" stop-color="#FFF6E2"/>
</linearGradient>
<linearGradient id="paint9_linear_47_14453" x1="35.8118" y1="45.3019" x2="68.3588" y2="21.9244" gradientUnits="userSpaceOnUse">
<stop stop-color="#A43DFF"/>
<stop offset="1" stop-color="#EAD6E2"/>
</linearGradient>
<linearGradient id="paint10_linear_47_14453" x1="-11.5858" y1="124.315" x2="85.7831" y2="110.89" gradientUnits="userSpaceOnUse">
<stop stop-color="#6318FF"/>
<stop offset="1" stop-color="#FFF6E2"/>
</linearGradient>
<linearGradient id="paint11_linear_47_14453" x1="27.5429" y1="12.4278" x2="31.905" y2="12.4278" gradientUnits="userSpaceOnUse">
<stop stop-color="#3600F4"/>
<stop offset="1" stop-color="#330EE0"/>
</linearGradient>
<linearGradient id="paint12_linear_47_14453" x1="-20.4624" y1="46.1675" x2="32.3314" y2="24.0657" gradientUnits="userSpaceOnUse">
<stop stop-color="#6318FF"/>
<stop offset="1" stop-color="#13FFE2"/>
</linearGradient>
<linearGradient id="paint13_linear_47_14453" x1="-6.15761" y1="40.0144" x2="12.8919" y2="32.0372" gradientUnits="userSpaceOnUse">
<stop stop-color="#6318FF"/>
<stop offset="1" stop-color="#13FFE2"/>
</linearGradient>
<linearGradient id="paint14_linear_47_14453" x1="-4.14024" y1="48.8257" x2="28.0527" y2="35.3474" gradientUnits="userSpaceOnUse">
<stop stop-color="#6318FF"/>
<stop offset="1" stop-color="#13FFE2"/>
</linearGradient>
<linearGradient id="paint15_linear_47_14453" x1="-14.5003" y1="51.7946" x2="24.2362" y2="35.5793" gradientUnits="userSpaceOnUse">
<stop stop-color="#6318FF"/>
<stop offset="1" stop-color="#13FFE2"/>
</linearGradient>
<linearGradient id="paint16_linear_47_14453" x1="11.4571" y1="51.4109" x2="23.9683" y2="46.1707" gradientUnits="userSpaceOnUse">
<stop stop-color="#6318FF"/>
<stop offset="1" stop-color="#13FFE2"/>
</linearGradient>
<linearGradient id="paint17_linear_47_14453" x1="-20.4624" y1="61.8827" x2="32.3314" y2="39.7809" gradientUnits="userSpaceOnUse">
<stop stop-color="#6318FF"/>
<stop offset="1" stop-color="#13FFE2"/>
</linearGradient>
<linearGradient id="paint18_linear_47_14453" x1="-6.15761" y1="55.7478" x2="12.8919" y2="47.7706" gradientUnits="userSpaceOnUse">
<stop stop-color="#6318FF"/>
<stop offset="1" stop-color="#13FFE2"/>
</linearGradient>
<linearGradient id="paint19_linear_47_14453" x1="-4.14024" y1="64.5591" x2="28.0528" y2="51.0808" gradientUnits="userSpaceOnUse">
<stop stop-color="#6318FF"/>
<stop offset="1" stop-color="#13FFE2"/>
</linearGradient>
<linearGradient id="paint20_linear_47_14453" x1="-14.4934" y1="67.5319" x2="24.2378" y2="51.3167" gradientUnits="userSpaceOnUse">
<stop stop-color="#6318FF"/>
<stop offset="1" stop-color="#13FFE2"/>
</linearGradient>
<linearGradient id="paint21_linear_47_14453" x1="11.4571" y1="67.1443" x2="23.9683" y2="61.9041" gradientUnits="userSpaceOnUse">
<stop stop-color="#6318FF"/>
<stop offset="1" stop-color="#13FFE2"/>
</linearGradient>
<linearGradient id="paint22_linear_47_14453" x1="-20.4624" y1="77.3366" x2="32.3314" y2="55.2348" gradientUnits="userSpaceOnUse">
<stop stop-color="#6318FF"/>
<stop offset="1" stop-color="#13FFE2"/>
</linearGradient>
</defs>
</svg>
