<svg width="52" height="91" viewBox="0 0 52 91" fill="none" xmlns="http://www.w3.org/2000/svg">
<path d="M51.5084 77.1752V14.4143L4.05094 13.4791V75.8207C3.97238 76.1014 3.99882 76.4011 4.12529 76.6638C4.25177 76.9266 4.46966 77.1345 4.73842 77.2489L26.294 89.9779C27.4303 90.6353 29.3677 90.573 30.6687 89.8419L50.4573 78.7167C51.213 78.2803 51.5766 77.7079 51.5084 77.1752Z" fill="url(#paint0_linear_47_14235)"/>
<path d="M26.2945 26.9335L4.76162 14.2328C3.62532 13.5754 3.80147 12.4476 5.10253 11.7165L24.8911 0.591359C26.1922 -0.139738 28.1523 -0.202082 29.2659 0.455338L50.7987 13.1617C51.935 13.8191 51.7589 14.9469 50.4578 15.678L30.6692 26.7975C29.3454 27.5456 27.3853 27.6079 26.2945 26.9335Z" fill="url(#paint1_linear_47_14235)"/>
<path d="M26.9587 21.5891L13.7947 13.8077C13.113 13.4053 13.2266 12.7139 14.005 12.2662L26.1236 5.4653C26.5328 5.24319 26.9886 5.11981 27.4543 5.10505C27.92 5.09028 28.3826 5.18455 28.8052 5.38029L41.9976 13.1616C42.6794 13.564 42.5658 14.2555 41.7931 14.7032L29.6688 21.5041C29.2559 21.7308 28.7951 21.8567 28.324 21.8715C27.853 21.8863 27.3851 21.7895 26.9587 21.5891Z" fill="url(#paint2_linear_47_14235)"/>
<path d="M22.5608 71.0656C22.5637 70.6132 22.4579 70.1666 22.2523 69.7634C22.0467 69.3601 21.7472 69.0118 21.3791 68.7476L5.35732 59.3114C5.24216 59.2297 5.10741 59.1799 4.96672 59.167C4.82603 59.154 4.68439 59.1784 4.55621 59.2377L4.46532 59.2944L0.488281 61.6577L17.9702 74.4774L21.9984 72.0744C22.0925 72.0493 22.1786 72.0005 22.2484 71.9327C22.3584 71.818 22.4431 71.6816 22.4969 71.5322C22.5508 71.3829 22.5725 71.2239 22.5608 71.0656Z" fill="url(#paint3_linear_47_14235)"/>
<path d="M17.232 74.364L1.21022 64.9051C0.842048 64.6409 0.542648 64.2926 0.337054 63.8893C0.131459 63.4861 0.0256709 63.0396 0.0284976 62.5871C0.0284976 61.703 0.596624 61.312 1.28408 61.7087L17.3059 71.1449C17.674 71.4091 17.9734 71.7574 18.179 72.1607C18.3846 72.564 18.4905 73.0105 18.4876 73.4629C18.4649 74.3697 17.9081 74.7607 17.232 74.364Z" fill="url(#paint4_linear_47_14235)"/>
<path d="M22.5041 64.038C22.506 63.5866 22.3997 63.1412 22.1941 62.739C21.9886 62.3368 21.6897 61.9894 21.3223 61.7257L5.3005 52.2838C5.18488 52.2032 5.05023 52.154 4.90976 52.1411C4.7693 52.1282 4.62788 52.152 4.49943 52.2101L4.40282 52.2668L0.425781 54.6301L17.902 67.4498L21.9359 65.0525C22.0291 65.0224 22.1145 64.972 22.1859 64.9051C22.2952 64.7898 22.3799 64.6534 22.4346 64.5043C22.4893 64.3552 22.5129 64.1965 22.5041 64.038Z" fill="url(#paint5_linear_47_14235)"/>
<path d="M17.2036 67.3421L1.18181 57.9002C0.81364 57.636 0.514241 57.2877 0.308646 56.8844C0.103051 56.4812 -0.00277149 56.0347 5.51741e-05 55.5823C5.51741e-05 54.6981 0.56821 54.3071 1.24999 54.7038L17.2718 64.14C17.641 64.4036 17.9415 64.7517 18.1481 65.155C18.3547 65.5583 18.4614 66.0051 18.4592 66.458C18.4081 67.3421 17.8456 67.7388 17.2036 67.3421Z" fill="url(#paint6_linear_47_14235)"/>
<path d="M22.5499 57.0104C22.5518 56.559 22.4456 56.1136 22.24 55.7114C22.0345 55.3092 21.7356 54.9618 21.3682 54.6981L5.34639 45.2562C5.23076 45.1756 5.09608 45.1264 4.95562 45.1135C4.81515 45.1006 4.67373 45.1244 4.54528 45.1825L4.4544 45.2392L0.477356 47.6025L17.9536 60.4222L21.9874 58.0249C22.0806 57.9948 22.166 57.9444 22.2374 57.8776C22.3475 57.7629 22.4322 57.6265 22.486 57.4771C22.5398 57.3277 22.5616 57.1687 22.5499 57.0104Z" fill="url(#paint7_linear_47_14235)"/>
<path d="M17.2036 60.3146L1.18181 50.8727C0.81364 50.6085 0.514241 50.2602 0.308646 49.8569C0.103051 49.4537 -0.00277149 49.0071 5.51742e-05 48.5547C5.51742e-05 47.6763 0.568216 47.2796 1.25568 47.6763L17.2775 57.1125C17.6456 57.3767 17.945 57.725 18.1506 58.1283C18.3562 58.5316 18.4621 58.9781 18.4592 59.4305C18.4535 60.3146 17.8911 60.7113 17.2036 60.3146Z" fill="url(#paint8_linear_47_14235)"/>
<path d="M22.5267 49.9659C22.5295 49.5135 22.4237 49.067 22.2181 48.6638C22.0125 48.2605 21.7131 47.9122 21.3449 47.648L5.32314 38.2117C5.20873 38.1284 5.07383 38.0776 4.93278 38.0646C4.79173 38.0516 4.64978 38.077 4.52203 38.1381C4.48863 38.1515 4.45787 38.1707 4.43114 38.1947L0.454102 40.558L17.9304 53.3777L21.9642 50.9747C22.0571 50.9468 22.1425 50.8984 22.2142 50.8331C22.3242 50.7184 22.4089 50.582 22.4627 50.4326C22.5166 50.2832 22.5383 50.1242 22.5267 49.9659Z" fill="url(#paint9_linear_47_14235)"/>
<path d="M17.2036 53.2643L1.18181 43.8281C0.81364 43.5639 0.514241 43.2156 0.308646 42.8123C0.103051 42.409 -0.00277149 41.9625 5.51741e-05 41.5101C5.51741e-05 40.626 0.568216 40.2349 1.25568 40.6317L17.2718 50.0679C17.641 50.3315 17.9415 50.6795 18.1481 51.0828C18.3547 51.4861 18.4614 51.933 18.4592 52.3859C18.4308 53.27 17.8683 53.661 17.2036 53.2643Z" fill="url(#paint10_linear_47_14235)"/>
<path d="M22.5726 42.9383C22.5754 42.4859 22.4696 42.0393 22.264 41.6361C22.0584 41.2328 21.759 40.8845 21.3908 40.6203L5.36904 31.184C5.25463 31.1007 5.11976 31.0499 4.97871 31.0369C4.83766 31.0239 4.69571 31.0493 4.56796 31.1104L4.47704 31.167L0.5 33.5304L17.9763 46.35L22.0044 43.9471C22.0986 43.922 22.1847 43.8732 22.2544 43.8054C22.3655 43.6912 22.4512 43.555 22.506 43.4056C22.5609 43.2562 22.5835 43.097 22.5726 42.9383Z" fill="url(#paint11_linear_47_14235)"/>
<path d="M17.2436 46.2368L1.22185 36.8006C0.853679 36.5363 0.55428 36.188 0.348685 35.7848C0.14309 35.3815 0.0372676 34.935 0.0400942 34.4826C0.0400942 33.5985 0.608255 33.2074 1.29571 33.6041L17.3175 43.0404C17.6857 43.3046 17.9851 43.6529 18.1907 44.0562C18.3963 44.4594 18.5021 44.9059 18.4993 45.3583C18.4765 46.2425 17.9197 46.6335 17.2436 46.2368Z" fill="url(#paint12_linear_47_14235)"/>
<path d="M22.5726 35.9107C22.5754 35.4583 22.4696 35.0118 22.264 34.6085C22.0584 34.2052 21.759 33.8569 21.3908 33.5927L5.36904 24.1565C5.25388 24.0748 5.11912 24.025 4.97843 24.0121C4.83775 23.9991 4.69614 24.0235 4.56796 24.0828L4.47704 24.1395L0.5 26.5028L17.9763 39.3225L22.0044 36.9195C22.0986 36.8944 22.1847 36.8457 22.2544 36.7778C22.3655 36.6637 22.4512 36.5275 22.506 36.3781C22.5609 36.2287 22.5835 36.0694 22.5726 35.9107Z" fill="url(#paint13_linear_47_14235)"/>
<path d="M17.2436 39.209L1.22185 29.7671C0.853679 29.5029 0.55428 29.1546 0.348685 28.7513C0.14309 28.3481 0.0372676 27.9015 0.0400942 27.4491C0.0400942 26.565 0.608255 26.174 1.29571 26.5707L17.3175 36.0013C17.6857 36.2655 17.9851 36.6138 18.1907 37.017C18.3963 37.4203 18.5021 37.8668 18.4993 38.3192C18.4765 39.2147 17.9197 39.6057 17.2436 39.209Z" fill="url(#paint14_linear_47_14235)"/>
<path d="M13.7948 13.8304L15.9935 15.1282L26.1236 9.46082C26.5324 9.23742 26.9883 9.11329 27.4542 9.09852C27.9201 9.08375 28.383 9.17875 28.8052 9.37582L39.7989 15.8593L41.7931 14.7259C42.5885 14.2781 42.6794 13.5924 41.9977 13.1843L28.7768 5.39729C28.3542 5.20155 27.8916 5.10728 27.4259 5.12205C26.9602 5.13681 26.5045 5.26019 26.0952 5.4823L13.9766 12.2832C13.1755 12.7649 13.0846 13.428 13.7948 13.8304Z" fill="url(#paint15_linear_47_14235)"/>
<path d="M48.1109 27.3416L33.1005 35.99V33.6607L48.1109 25.0123V27.3416Z" fill="url(#paint16_linear_47_14235)"/>
<path d="M48.1109 31.8187L43.5089 34.4711V32.1418L48.1109 29.4894V31.8187Z" fill="url(#paint17_linear_47_14235)"/>
<path d="M41.759 35.4742L33.1005 40.4616V38.1379L41.759 33.1506V35.4742Z" fill="url(#paint18_linear_47_14235)"/>
<path d="M48.1109 36.1204L37.4297 42.2865V39.9629L48.1109 33.7911V36.1204Z" fill="url(#paint19_linear_47_14235)"/>
<path d="M35.6799 43.2953L33.1005 44.7688V42.4395L35.6799 40.9716V43.2953Z" fill="url(#paint20_linear_47_14235)"/>
<path d="M48.1109 40.6147L33.1005 49.2631V46.9395L48.1109 38.291V40.6147Z" fill="url(#paint21_linear_47_14235)"/>
<path d="M48.1109 45.1088L43.5089 47.7612V45.4319L48.1109 42.7795V45.1088Z" fill="url(#paint22_linear_47_14235)"/>
<path d="M41.759 48.77L33.1005 53.7573V51.428L41.759 46.4407V48.77Z" fill="url(#paint23_linear_47_14235)"/>
<path d="M48.1109 49.4105L37.4297 55.5823V53.253L48.1109 47.0812V49.4105Z" fill="url(#paint24_linear_47_14235)"/>
<path d="M35.6799 56.5854L33.1005 58.0589V55.7296L35.6799 54.2617V56.5854Z" fill="url(#paint25_linear_47_14235)"/>
<path d="M48.1109 53.6724L33.1005 62.3208V59.9915L48.1109 51.343V53.6724Z" fill="url(#paint26_linear_47_14235)"/>
<path d="M48.1109 58.1439L43.5089 60.7963V58.4726L48.1109 55.8146V58.1439Z" fill="url(#paint27_linear_47_14235)"/>
<path d="M41.759 61.8051L33.1005 66.7924V64.4631L41.759 59.4758V61.8051Z" fill="url(#paint28_linear_47_14235)"/>
<path d="M48.1109 62.4511L37.4297 68.6173V66.2879L48.1109 60.1218V62.4511Z" fill="url(#paint29_linear_47_14235)"/>
<path d="M35.6799 69.6261L33.1005 71.094V68.7703L35.6799 67.2968V69.6261Z" fill="url(#paint30_linear_47_14235)"/>
<path d="M48.1109 66.9455L33.1005 75.5939V73.2646L48.1109 64.6161V66.9455Z" fill="url(#paint31_linear_47_14235)"/>
<defs>
<linearGradient id="paint0_linear_47_14235" x1="31.8675" y1="51.9552" x2="25.4645" y2="51.9552" gradientUnits="userSpaceOnUse">
<stop stop-color="#3D00E7"/>
<stop offset="1" stop-color="#6031FF"/>
</linearGradient>
<linearGradient id="paint1_linear_47_14235" x1="108.443" y1="72.1765" x2="-25.6597" y2="-25.4776" gradientUnits="userSpaceOnUse">
<stop stop-color="#6318FF"/>
<stop offset="1" stop-color="#FFF6E2"/>
</linearGradient>
<linearGradient id="paint2_linear_47_14235" x1="84.0463" y1="54.1881" x2="-17.8069" y2="-19.9836" gradientUnits="userSpaceOnUse">
<stop stop-color="#4500FF"/>
<stop offset="1" stop-color="#6A31FF"/>
</linearGradient>
<linearGradient id="paint3_linear_47_14235" x1="22.0154" y1="73.2872" x2="-5.36862" y2="53.6194" gradientUnits="userSpaceOnUse">
<stop stop-color="#A43DFF"/>
<stop offset="1" stop-color="#EAD6E2"/>
</linearGradient>
<linearGradient id="paint4_linear_47_14235" x1="60.2685" y1="138.452" x2="-21.6454" y2="127.159" gradientUnits="userSpaceOnUse">
<stop stop-color="#BF9FFF"/>
<stop offset="1" stop-color="#FFF6E2"/>
</linearGradient>
<linearGradient id="paint5_linear_47_14235" x1="21.9586" y1="66.2653" x2="-5.42539" y2="46.5917" gradientUnits="userSpaceOnUse">
<stop stop-color="#A43DFF"/>
<stop offset="1" stop-color="#EAD6E2"/>
</linearGradient>
<linearGradient id="paint6_linear_47_14235" x1="60.793" y1="132.25" x2="-21.121" y2="120.957" gradientUnits="userSpaceOnUse">
<stop stop-color="#BF9FFF"/>
<stop offset="1" stop-color="#FFF6E2"/>
</linearGradient>
<linearGradient id="paint7_linear_47_14235" x1="22.0045" y1="59.2377" x2="-5.37952" y2="39.5642" gradientUnits="userSpaceOnUse">
<stop stop-color="#A43DFF"/>
<stop offset="1" stop-color="#EAD6E2"/>
</linearGradient>
<linearGradient id="paint8_linear_47_14235" x1="60.2122" y1="124.458" x2="-21.7018" y2="113.164" gradientUnits="userSpaceOnUse">
<stop stop-color="#BF9FFF"/>
<stop offset="1" stop-color="#FFF6E2"/>
</linearGradient>
<linearGradient id="paint9_linear_47_14235" x1="21.9812" y1="52.1876" x2="-5.4028" y2="32.5197" gradientUnits="userSpaceOnUse">
<stop stop-color="#A43DFF"/>
<stop offset="1" stop-color="#EAD6E2"/>
</linearGradient>
<linearGradient id="paint10_linear_47_14235" x1="60.7662" y1="118.227" x2="-21.1478" y2="106.934" gradientUnits="userSpaceOnUse">
<stop stop-color="#BF9FFF"/>
<stop offset="1" stop-color="#FFF6E2"/>
</linearGradient>
<linearGradient id="paint11_linear_47_14235" x1="22.0272" y1="45.1599" x2="-5.35687" y2="25.492" gradientUnits="userSpaceOnUse">
<stop stop-color="#A43DFF"/>
<stop offset="1" stop-color="#EAD6E2"/>
</linearGradient>
<linearGradient id="paint12_linear_47_14235" x1="60.1856" y1="110.435" x2="-21.7294" y2="99.1462" gradientUnits="userSpaceOnUse">
<stop stop-color="#BF9FFF"/>
<stop offset="1" stop-color="#FFF6E2"/>
</linearGradient>
<linearGradient id="paint13_linear_47_14235" x1="22.0272" y1="38.1323" x2="-5.35688" y2="18.4644" gradientUnits="userSpaceOnUse">
<stop stop-color="#A43DFF"/>
<stop offset="1" stop-color="#EAD6E2"/>
</linearGradient>
<linearGradient id="paint14_linear_47_14235" x1="61.4818" y1="105.178" x2="-20.4322" y2="93.8843" gradientUnits="userSpaceOnUse">
<stop stop-color="#BF9FFF"/>
<stop offset="1" stop-color="#FFF6E2"/>
</linearGradient>
<linearGradient id="paint15_linear_47_14235" x1="28.9871" y1="10.4753" x2="25.3168" y2="10.4753" gradientUnits="userSpaceOnUse">
<stop stop-color="#3600F4"/>
<stop offset="1" stop-color="#330EE0"/>
</linearGradient>
<linearGradient id="paint16_linear_47_14235" x1="69.2906" y1="39.5568" x2="24.8723" y2="20.9602" gradientUnits="userSpaceOnUse">
<stop stop-color="#6318FF"/>
<stop offset="1" stop-color="#13FFE2"/>
</linearGradient>
<linearGradient id="paint17_linear_47_14235" x1="57.2546" y1="34.3799" x2="41.2242" y2="27.6679" gradientUnits="userSpaceOnUse">
<stop stop-color="#6318FF"/>
<stop offset="1" stop-color="#13FFE2"/>
</linearGradient>
<linearGradient id="paint18_linear_47_14235" x1="55.5543" y1="41.7875" x2="28.474" y2="30.4488" gradientUnits="userSpaceOnUse">
<stop stop-color="#6318FF"/>
<stop offset="1" stop-color="#13FFE2"/>
</linearGradient>
<linearGradient id="paint19_linear_47_14235" x1="64.2685" y1="44.2934" x2="31.6811" y2="30.6499" gradientUnits="userSpaceOnUse">
<stop stop-color="#6318FF"/>
<stop offset="1" stop-color="#13FFE2"/>
</linearGradient>
<linearGradient id="paint20_linear_47_14235" x1="42.431" y1="43.96" x2="31.9092" y2="39.5557" gradientUnits="userSpaceOnUse">
<stop stop-color="#6318FF"/>
<stop offset="1" stop-color="#13FFE2"/>
</linearGradient>
<linearGradient id="paint21_linear_47_14235" x1="69.2857" y1="52.7772" x2="24.8712" y2="34.1806" gradientUnits="userSpaceOnUse">
<stop stop-color="#6318FF"/>
<stop offset="1" stop-color="#13FFE2"/>
</linearGradient>
<linearGradient id="paint22_linear_47_14235" x1="57.2546" y1="47.617" x2="41.2242" y2="40.905" gradientUnits="userSpaceOnUse">
<stop stop-color="#6318FF"/>
<stop offset="1" stop-color="#13FFE2"/>
</linearGradient>
<linearGradient id="paint23_linear_47_14235" x1="55.5543" y1="55.0246" x2="28.4702" y2="43.6859" gradientUnits="userSpaceOnUse">
<stop stop-color="#6318FF"/>
<stop offset="1" stop-color="#13FFE2"/>
</linearGradient>
<linearGradient id="paint24_linear_47_14235" x1="64.2685" y1="57.5305" x2="31.6811" y2="43.887" gradientUnits="userSpaceOnUse">
<stop stop-color="#6318FF"/>
<stop offset="1" stop-color="#13FFE2"/>
</linearGradient>
<linearGradient id="paint25_linear_47_14235" x1="42.431" y1="57.1972" x2="31.9092" y2="52.7928" gradientUnits="userSpaceOnUse">
<stop stop-color="#6318FF"/>
<stop offset="1" stop-color="#13FFE2"/>
</linearGradient>
<linearGradient id="paint26_linear_47_14235" x1="69.2857" y1="65.7796" x2="24.8712" y2="47.1831" gradientUnits="userSpaceOnUse">
<stop stop-color="#6318FF"/>
<stop offset="1" stop-color="#13FFE2"/>
</linearGradient>
<linearGradient id="paint27_linear_47_14235" x1="57.2546" y1="60.5999" x2="41.2242" y2="53.8879" gradientUnits="userSpaceOnUse">
<stop stop-color="#6318FF"/>
<stop offset="1" stop-color="#13FFE2"/>
</linearGradient>
<linearGradient id="paint28_linear_47_14235" x1="55.5543" y1="68.014" x2="28.4687" y2="56.6726" gradientUnits="userSpaceOnUse">
<stop stop-color="#6318FF"/>
<stop offset="1" stop-color="#13FFE2"/>
</linearGradient>
<linearGradient id="paint29_linear_47_14235" x1="64.2685" y1="70.5133" x2="31.6811" y2="56.8698" gradientUnits="userSpaceOnUse">
<stop stop-color="#6318FF"/>
<stop offset="1" stop-color="#13FFE2"/>
</linearGradient>
<linearGradient id="paint30_linear_47_14235" x1="42.431" y1="70.1866" x2="31.9077" y2="65.7795" gradientUnits="userSpaceOnUse">
<stop stop-color="#6318FF"/>
<stop offset="1" stop-color="#13FFE2"/>
</linearGradient>
<linearGradient id="paint31_linear_47_14235" x1="69.2857" y1="78.9972" x2="24.8712" y2="60.4006" gradientUnits="userSpaceOnUse">
<stop stop-color="#6318FF"/>
<stop offset="1" stop-color="#13FFE2"/>
</linearGradient>
</defs>
</svg>
