<svg width="140" height="38" viewBox="0 0 140 38" fill="none" xmlns="http://www.w3.org/2000/svg">
<path d="M60.19 13.9386C60.1019 13.0505 59.724 12.3607 59.0561 11.869C58.3883 11.3772 57.4819 11.1314 56.337 11.1314C55.5591 11.1314 54.9022 11.2415 54.3665 11.4616C53.8307 11.6745 53.4197 11.9717 53.1335 12.3533C52.8546 12.735 52.7152 13.168 52.7152 13.6523C52.7005 14.056 52.7849 14.4083 52.9684 14.7092C53.1592 15.0101 53.4197 15.2706 53.75 15.4908C54.0803 15.7036 54.4619 15.8907 54.8949 16.0522C55.3279 16.2063 55.7902 16.3384 56.282 16.4485L58.3075 16.9329C59.291 17.1531 60.1937 17.4466 61.0156 17.8136C61.8376 18.1805 62.5495 18.6319 63.1513 19.1676C63.7531 19.7034 64.2191 20.3345 64.5494 21.0611C64.887 21.7876 65.0594 22.6206 65.0668 23.56C65.0594 24.9397 64.7072 26.136 64.0099 27.1488C63.3201 28.1542 62.322 28.9358 61.0156 29.4936C59.7166 30.044 58.1497 30.3192 56.315 30.3192C54.4949 30.3192 52.9097 30.0404 51.5593 29.4826C50.2163 28.9248 49.1668 28.0992 48.4109 27.0057C47.6623 25.9048 47.2696 24.5434 47.233 22.9215H51.8455C51.8969 23.6774 52.1134 24.3086 52.495 24.815C52.884 25.314 53.4014 25.692 54.0472 25.9489C54.7004 26.1984 55.438 26.3232 56.2599 26.3232C57.0672 26.3232 57.7681 26.2057 58.3626 25.9709C58.9644 25.736 59.4304 25.4094 59.7607 24.9911C60.0909 24.5728 60.256 24.0921 60.256 23.549C60.256 23.0426 60.1056 22.617 59.8047 22.272C59.5111 21.9271 59.0781 21.6335 58.5057 21.3913C57.9406 21.1491 57.247 20.929 56.4251 20.7308L53.9702 20.1143C52.0694 19.652 50.5685 18.9291 49.4677 17.9457C48.3668 16.9622 47.8201 15.6375 47.8274 13.9716C47.8201 12.6065 48.1834 11.4139 48.9173 10.3938C49.6585 9.3737 50.675 8.57741 51.9666 8.00497C53.2583 7.43253 54.7261 7.14631 56.37 7.14631C58.0433 7.14631 59.5038 7.43253 60.7514 8.00497C62.0064 8.57741 62.9825 9.3737 63.6797 10.3938C64.3769 11.4139 64.7365 12.5955 64.7585 13.9386H60.19ZM77.1789 13.0909V16.6136H66.996V13.0909H77.1789ZM69.3078 9.03977H73.9974V24.804C73.9974 25.237 74.0635 25.5746 74.1956 25.8168C74.3277 26.0516 74.5112 26.2167 74.746 26.3121C74.9882 26.4076 75.2671 26.4553 75.5827 26.4553C75.8028 26.4553 76.023 26.4369 76.2432 26.4002C76.4633 26.3562 76.6321 26.3232 76.7496 26.3011L77.4871 29.7908C77.2523 29.8642 76.922 29.9486 76.4964 30.044C76.0707 30.1468 75.5533 30.2092 74.9442 30.2312C73.814 30.2752 72.8232 30.1248 71.9719 29.7798C71.1279 29.4349 70.471 28.8991 70.0013 28.1726C69.5316 27.446 69.3005 26.5286 69.3078 25.4205V9.03977ZM85.0555 30.3192C83.9767 30.3192 83.0152 30.1321 82.1713 29.7578C81.3273 29.3762 80.6594 28.8147 80.1677 28.0735C79.6833 27.3249 79.4411 26.3929 79.4411 25.2773C79.4411 24.3379 79.6136 23.549 79.9585 22.9105C80.3035 22.272 80.7732 21.7583 81.3676 21.3693C81.9621 20.9804 82.6373 20.6868 83.3932 20.4886C84.1565 20.2905 84.9564 20.151 85.7931 20.0703C86.7765 19.9676 87.5691 19.8722 88.1709 19.7841C88.7727 19.6887 89.2094 19.5492 89.4809 19.3658C89.7525 19.1823 89.8882 18.9107 89.8882 18.5511V18.4851C89.8882 17.7879 89.6681 17.2485 89.2277 16.8668C88.7947 16.4852 88.1782 16.2944 87.3783 16.2944C86.5343 16.2944 85.8628 16.4815 85.3637 16.8558C84.8647 17.2228 84.5344 17.6851 84.373 18.2429L80.0356 17.8906C80.2558 16.8632 80.6888 15.9751 81.3346 15.2266C81.9804 14.4706 82.8134 13.8909 83.8335 13.4872C84.861 13.0762 86.0499 12.8707 87.4003 12.8707C88.3397 12.8707 89.2387 12.9808 90.0974 13.201C90.9634 13.4212 91.7303 13.7624 92.3982 14.2248C93.0734 14.6871 93.6054 15.2816 93.9944 16.0082C94.3834 16.7274 94.5779 17.5897 94.5779 18.5952V30H90.1304V27.6552H89.9983C89.7268 28.1836 89.3635 28.6496 88.9085 29.0533C88.4535 29.4496 87.9067 29.7615 87.2682 29.989C86.6297 30.2092 85.8921 30.3192 85.0555 30.3192ZM86.3985 27.0827C87.0884 27.0827 87.6975 26.947 88.2259 26.6754C88.7544 26.3965 89.169 26.0223 89.4699 25.5526C89.7708 25.0829 89.9213 24.5508 89.9213 23.9563V22.1619C89.7745 22.2573 89.5727 22.3454 89.3158 22.4261C89.0663 22.4995 88.7837 22.5692 88.4681 22.6353C88.1526 22.694 87.837 22.7491 87.5214 22.8004C87.2058 22.8445 86.9196 22.8848 86.6627 22.9215C86.1123 23.0022 85.6316 23.1307 85.2206 23.3068C84.8096 23.483 84.4904 23.7215 84.2629 24.0224C84.0354 24.3159 83.9216 24.6829 83.9216 25.1232C83.9216 25.7617 84.1528 26.2498 84.6151 26.5874C85.0848 26.9176 85.6793 27.0827 86.3985 27.0827ZM107.21 13.0909V16.6136H97.0273V13.0909H107.21ZM99.339 9.03977H104.029V24.804C104.029 25.237 104.095 25.5746 104.227 25.8168C104.359 26.0516 104.542 26.2167 104.777 26.3121C105.019 26.4076 105.298 26.4553 105.614 26.4553C105.834 26.4553 106.054 26.4369 106.274 26.4002C106.495 26.3562 106.663 26.3232 106.781 26.3011L107.518 29.7908C107.284 29.8642 106.953 29.9486 106.528 30.044C106.102 30.1468 105.585 30.2092 104.975 30.2312C103.845 30.2752 102.854 30.1248 102.003 29.7798C101.159 29.4349 100.502 28.8991 100.033 28.1726C99.5629 27.446 99.3317 26.5286 99.339 25.4205V9.03977ZM117.789 30.3303C116.05 30.3303 114.553 29.978 113.298 29.2734C112.05 28.5616 111.089 27.5561 110.414 26.2571C109.738 24.9508 109.401 23.4059 109.401 21.6225C109.401 19.8832 109.738 18.3567 110.414 17.043C111.089 15.7293 112.039 14.7055 113.265 13.9716C114.498 13.2377 115.944 12.8707 117.602 12.8707C118.718 12.8707 119.756 13.0505 120.718 13.4102C121.686 13.7624 122.53 14.2945 123.25 15.0064C123.976 15.7183 124.541 16.6136 124.945 17.6925C125.349 18.764 125.55 20.0189 125.55 21.4574V22.7454H111.272V19.8391H121.136C121.136 19.1639 120.989 18.5658 120.696 18.0447C120.402 17.5237 119.995 17.1164 119.474 16.8228C118.96 16.5219 118.362 16.3714 117.679 16.3714C116.967 16.3714 116.336 16.5366 115.786 16.8668C115.243 17.1897 114.817 17.6264 114.509 18.1768C114.201 18.7199 114.043 19.3254 114.035 19.9933V22.7564C114.035 23.593 114.19 24.3159 114.498 24.9251C114.813 25.5342 115.257 26.0039 115.83 26.3342C116.402 26.6644 117.081 26.8295 117.866 26.8295C118.387 26.8295 118.864 26.7562 119.297 26.6094C119.73 26.4626 120.101 26.2424 120.409 25.9489C120.718 25.6553 120.952 25.2957 121.114 24.87L125.451 25.1562C125.231 26.1984 124.78 27.1084 124.097 27.8864C123.422 28.657 122.549 29.2588 121.477 29.6918C120.413 30.1174 119.184 30.3303 117.789 30.3303ZM128.611 30V13.0909H133.157V16.0412H133.333C133.642 14.9917 134.159 14.1991 134.886 13.6634C135.612 13.1203 136.449 12.8487 137.396 12.8487C137.63 12.8487 137.884 12.8634 138.155 12.8928C138.427 12.9221 138.665 12.9625 138.871 13.0138V17.1751C138.65 17.109 138.346 17.0503 137.957 16.9989C137.568 16.9476 137.212 16.9219 136.889 16.9219C136.199 16.9219 135.583 17.0723 135.04 17.3732C134.504 17.6668 134.078 18.0778 133.763 18.6062C133.454 19.1346 133.3 19.7437 133.3 20.4336V30H128.611Z" fill="white"/>
<circle cx="19" cy="19" r="19" fill="#24E471"/>
<path d="M14.441 26.9717C14.253 26.9717 14.0728 26.8991 13.9399 26.7697C13.807 26.6404 13.7323 26.4651 13.7323 26.2822L13.7323 18.008L8.06296 18.008C7.92305 18.0084 7.78614 17.9685 7.66949 17.8934C7.55283 17.8182 7.46165 17.7112 7.40744 17.5857C7.37273 17.5006 7.3547 17.41 7.35429 17.3185C7.35508 17.1354 7.428 16.9596 7.55803 16.8272L13.9361 10.6215C14.0704 10.4921 14.2519 10.4194 14.441 10.4194C14.6301 10.4194 14.8115 10.4921 14.9459 10.6215L21.3239 16.8272C21.4201 16.9269 21.4852 17.051 21.5119 17.1853C21.5385 17.3195 21.5256 17.4583 21.4745 17.5857C21.4203 17.7112 21.3291 17.8182 21.2125 17.8934C21.0958 17.9685 20.9589 18.0084 20.819 18.008L15.1496 18.008L15.1496 26.2822C15.1496 26.4651 15.075 26.6404 14.9421 26.7697C14.8092 26.8991 14.6289 26.9717 14.441 26.9717Z" fill="#272728"/>
<path d="M24.8227 11.3388C25.0106 11.3388 25.1909 11.4115 25.3238 11.5408C25.4567 11.6701 25.5314 11.8455 25.5314 12.0284L25.5314 20.3026L31.2007 20.3026C31.3406 20.3021 31.4775 20.342 31.5942 20.4172C31.7108 20.4923 31.802 20.5994 31.8562 20.7249C31.8909 20.8099 31.909 20.9006 31.9094 20.9921C31.9086 21.1752 31.8357 21.351 31.7056 21.4834L25.3276 27.689C25.1933 27.8185 25.0118 27.8911 24.8227 27.8911C24.6336 27.8911 24.4521 27.8185 24.3178 27.689L17.9397 21.4834C17.8436 21.3837 17.7784 21.2595 17.7518 21.1253C17.7251 20.9911 17.7381 20.8522 17.7891 20.7249C17.8434 20.5994 17.9345 20.4923 18.0512 20.4172C18.1679 20.342 18.3048 20.3021 18.4447 20.3026L24.114 20.3026L24.114 12.0284C24.114 11.8455 24.1887 11.6701 24.3216 11.5408C24.4545 11.4115 24.6347 11.3388 24.8227 11.3388Z" fill="#272728"/>
</svg>
